<svg width="137" height="19" viewBox="0 0 137 19" fill="none" xmlns="http://www.w3.org/2000/svg">
<mask id="path-1-outside-1_83_190" maskUnits="userSpaceOnUse" x="0" y="0" width="137" height="19" fill="black">
<rect fill="white" width="137" height="19"/>
<path d="M5.65889 13.2998L3.37299 17.4344H1L8.51083 3.78234H12.1247L19.6356 17.4344H17.2408L14.9767 13.2998H5.65889ZM6.59502 11.5835H14.0405L10.3178 4.8355L6.59502 11.5835Z"/>
<path d="M32.022 8.50206L24.7071 17.4344H21.398V7.09785H23.4226V15.9522L30.7375 7.09785H34.0466V17.4344H32.022V8.50206Z"/>
<path d="M49.5076 14.0409C49.406 14.691 49.1666 15.2631 48.7892 15.7572C48.4264 16.2382 47.9547 16.6413 47.3741 16.9663C46.8081 17.2914 46.155 17.5319 45.4148 17.688C44.6746 17.857 43.8763 17.9415 43.02 17.9415C41.975 17.9415 41.0317 17.8245 40.1899 17.5904C39.3626 17.3694 38.6514 17.0249 38.0563 16.5568C37.4613 16.0887 37.0041 15.4971 36.6848 14.782C36.3655 14.0669 36.1986 13.2283 36.1841 12.2661C36.1841 11.304 36.3437 10.4654 36.663 9.75025C36.9823 9.02214 37.4323 8.42405 38.0128 7.95598C38.6079 7.4749 39.3263 7.11735 40.1681 6.88332C41.0099 6.63628 41.946 6.51276 42.9765 6.51276C43.8328 6.51276 44.631 6.59727 45.3712 6.7663C46.1259 6.93532 46.7936 7.18236 47.3741 7.50741C47.9547 7.83246 48.4336 8.24202 48.811 8.73609C49.1883 9.21717 49.4278 9.78275 49.5294 10.4328H47.3524C47.2653 10.0558 47.0911 9.72424 46.8299 9.4382C46.5831 9.15216 46.2638 8.91162 45.872 8.71659C45.4946 8.52156 45.0519 8.37204 44.544 8.26802C44.0505 8.16401 43.5207 8.112 42.9547 8.112C41.4163 8.125 40.2552 8.46305 39.4714 9.12615C38.6877 9.78925 38.2813 10.8294 38.2523 12.2466C38.2813 13.6508 38.6949 14.6845 39.4932 15.3476C40.306 16.0107 41.4816 16.3422 43.02 16.3422C44.1666 16.3422 45.1318 16.1537 45.9155 15.7767C46.6992 15.3996 47.1782 14.821 47.3524 14.0409H49.5076Z"/>
<path d="M73.9738 13.2803C73.9738 14.0474 73.8577 14.6975 73.6254 15.2306C73.3932 15.7637 73.0304 16.1927 72.5369 16.5178C72.058 16.8428 71.4411 17.0769 70.6864 17.2199C69.9462 17.3629 69.0536 17.4344 68.0086 17.4344H58.1248V3.78234H72.6893V5.4986H60.2583V9.16516H68.0304C69.1334 9.16516 70.0623 9.23667 70.817 9.37969C71.5717 9.50971 72.1813 9.73725 72.6458 10.0623C73.1247 10.3873 73.4658 10.8164 73.669 11.3495C73.8722 11.8696 73.9738 12.5132 73.9738 13.2803ZM60.2583 15.7182H67.8345C68.4005 15.7182 68.9157 15.6922 69.3802 15.6401C69.8591 15.5751 70.2655 15.4581 70.5993 15.2891C70.9477 15.1201 71.2089 14.873 71.3831 14.548C71.5717 14.2229 71.6661 13.8004 71.6661 13.2803C71.6661 12.7472 71.5717 12.3246 71.3831 12.0126C71.2089 11.7005 70.9549 11.46 70.6211 11.291C70.2873 11.122 69.8809 11.0114 69.4019 10.9594C68.9375 10.9074 68.4223 10.8814 67.8562 10.8814H60.2583V15.7182Z"/>
<path d="M89.5048 12.2271C89.4903 13.1893 89.3234 14.0279 89.0041 14.743C88.6848 15.4581 88.2276 16.0497 87.6325 16.5178C87.052 16.9858 86.3408 17.3304 85.499 17.5514C84.6718 17.7855 83.7356 17.9025 82.6906 17.9025C80.9635 17.9025 79.5267 17.5774 78.3801 16.9273C77.248 16.2772 76.5151 15.3021 76.1813 14.0019H78.3365C78.9171 15.5491 80.3684 16.3227 82.6906 16.3227C85.4337 16.3227 86.9867 15.2436 87.3495 13.0853H80.7531V11.486H87.3931C87.2334 10.3028 86.7617 9.4382 85.978 8.89212C85.2088 8.33303 84.1275 8.05349 82.7342 8.05349C81.5876 8.05349 80.637 8.24852 79.8822 8.63858C79.1275 9.02864 78.6196 9.61373 78.3583 10.3938H76.1595C76.4788 9.06764 77.219 8.086 78.3801 7.4489C79.5557 6.7988 80.9998 6.47375 82.7124 6.47375C83.7429 6.47375 84.679 6.59727 85.5208 6.84431C86.3626 7.07834 87.0738 7.4359 87.6543 7.91697C88.2494 8.38504 88.7066 8.98313 89.0259 9.71124C89.3452 10.4264 89.5048 11.265 89.5048 12.2271Z"/>
<path d="M102.531 8.50206L95.2165 17.4344H91.9074V7.09785H93.932V15.9522L101.247 7.09785H104.556V17.4344H102.531V8.50206Z"/>
<path d="M121.073 12.7927C121.059 13.6508 120.877 14.405 120.529 15.0551C120.195 15.7052 119.724 16.2512 119.114 16.6933C118.504 17.1224 117.772 17.4474 116.915 17.6685C116.073 17.8895 115.137 18 114.107 18C113.134 18 112.22 17.896 111.364 17.688C110.522 17.4929 109.789 17.1809 109.165 16.7518C108.541 16.3097 108.047 15.7507 107.685 15.0746C107.336 14.3855 107.162 13.5663 107.162 12.6172C107.162 12.0061 107.162 11.395 107.162 10.7839C107.177 10.1728 107.227 9.58772 107.314 9.02864C107.416 8.45655 107.576 7.91697 107.793 7.40989C108.026 6.90282 108.359 6.45425 108.795 6.06419C109.245 5.66113 109.818 5.32958 110.515 5.06954C111.226 4.7965 112.097 4.61447 113.127 4.52346C114.985 4.35443 116.436 4.19841 117.481 4.05538C118.541 3.89936 119.085 3.82135 119.114 3.82135L119.092 5.44009C118.889 5.4791 118.57 5.53111 118.134 5.59612C117.757 5.64813 117.227 5.70664 116.545 5.77165C115.878 5.83666 114.999 5.91467 113.911 6.00568C112.59 6.1097 111.552 6.39574 110.798 6.86381C110.058 7.33188 109.579 7.96898 109.361 8.7751C109.985 8.39804 110.711 8.1185 111.538 7.93647C112.38 7.74144 113.294 7.64393 114.281 7.64393C115.311 7.64393 116.248 7.74794 117.089 7.95598C117.931 8.15101 118.642 8.46305 119.223 8.89212C119.818 9.30818 120.275 9.84126 120.594 10.4914C120.914 11.1285 121.073 11.8956 121.073 12.7927ZM109.23 12.7342C109.259 13.9954 109.687 14.912 110.515 15.4841C111.357 16.0432 112.547 16.3227 114.085 16.3227C115.609 16.3227 116.799 16.0497 117.655 15.5036C118.526 14.9445 118.976 14.0279 119.005 12.7537C118.991 11.4795 118.577 10.5889 117.764 10.0818C116.952 9.56172 115.783 9.30168 114.259 9.30168C113.505 9.30168 112.815 9.36019 112.191 9.47721C111.581 9.59422 111.059 9.78925 110.624 10.0623C110.188 10.3353 109.847 10.6929 109.6 11.135C109.368 11.564 109.245 12.0971 109.23 12.7342Z"/>
<path d="M133.975 8.50206L126.66 17.4344H123.351V7.09785H125.376V15.9522L132.691 7.09785H136V17.4344H133.975V8.50206Z"/>
<path d="M28.4398 1.03377L27.4665 2.55295C27.3832 2.68326 27.2422 2.68124 27.1536 2.54819L26.1223 1L25.3167 1.40312L26.348 2.9513C26.4366 3.08435 26.3682 3.19117 26.1963 3.18851L24.1916 3.15951L24.2078 3.98991L26.2125 4.01895C26.2815 4.00847 26.352 4.0379 26.3882 4.09232C26.4245 4.14674 26.4187 4.21433 26.3736 4.26092L25.4004 5.78007L26.222 6.20744L27.1954 4.68826C27.2786 4.55795 27.4196 4.55997 27.5082 4.69302L28.5395 6.24121L29.3452 5.83808L28.3138 4.2899C28.2252 4.15685 28.2937 4.05003 28.4655 4.05269L30.4702 4.08169L30.454 3.25129L28.4494 3.22225C28.3803 3.23273 28.3099 3.2033 28.2736 3.14888C28.2374 3.09446 28.2432 3.02687 28.2882 2.98028L29.2615 1.46114L28.4398 1.03377Z"/>
<path d="M98.9422 1.16682L97.9688 2.686C97.8855 2.81631 97.7446 2.81429 97.6559 2.68124L96.6246 1.13305L95.819 1.53617L96.8503 3.08435C96.939 3.21741 96.8705 3.32422 96.6987 3.32156L94.694 3.29256L94.7102 4.12296L96.7148 4.152C96.7839 4.14152 96.8543 4.17095 96.8906 4.22537C96.9268 4.27979 96.921 4.34738 96.876 4.39397L95.9027 5.91312L96.7243 6.34049L97.6977 4.82131C97.781 4.691 97.9219 4.69302 98.0106 4.82607L99.0419 6.37426L99.8475 5.97113L98.8162 4.42295C98.7276 4.2899 98.796 4.18308 98.9679 4.18574L100.973 4.21474L100.956 3.38434L98.9517 3.3553C98.8827 3.36579 98.8122 3.33635 98.776 3.28193C98.7397 3.22751 98.7455 3.15993 98.7905 3.11333L99.7638 1.59419L98.9422 1.16682Z"/>
</mask>
<path d="M5.65889 13.2998L3.37299 17.4344H1L8.51083 3.78234H12.1247L19.6356 17.4344H17.2408L14.9767 13.2998H5.65889ZM6.59502 11.5835H14.0405L10.3178 4.8355L6.59502 11.5835Z" fill="black"/>
<path d="M32.022 8.50206L24.7071 17.4344H21.398V7.09785H23.4226V15.9522L30.7375 7.09785H34.0466V17.4344H32.022V8.50206Z" fill="black"/>
<path d="M49.5076 14.0409C49.406 14.691 49.1666 15.2631 48.7892 15.7572C48.4264 16.2382 47.9547 16.6413 47.3741 16.9663C46.8081 17.2914 46.155 17.5319 45.4148 17.688C44.6746 17.857 43.8763 17.9415 43.02 17.9415C41.975 17.9415 41.0317 17.8245 40.1899 17.5904C39.3626 17.3694 38.6514 17.0249 38.0563 16.5568C37.4613 16.0887 37.0041 15.4971 36.6848 14.782C36.3655 14.0669 36.1986 13.2283 36.1841 12.2661C36.1841 11.304 36.3437 10.4654 36.663 9.75025C36.9823 9.02214 37.4323 8.42405 38.0128 7.95598C38.6079 7.4749 39.3263 7.11735 40.1681 6.88332C41.0099 6.63628 41.946 6.51276 42.9765 6.51276C43.8328 6.51276 44.631 6.59727 45.3712 6.7663C46.1259 6.93532 46.7936 7.18236 47.3741 7.50741C47.9547 7.83246 48.4336 8.24202 48.811 8.73609C49.1883 9.21717 49.4278 9.78275 49.5294 10.4328H47.3524C47.2653 10.0558 47.0911 9.72424 46.8299 9.4382C46.5831 9.15216 46.2638 8.91162 45.872 8.71659C45.4946 8.52156 45.0519 8.37204 44.544 8.26802C44.0505 8.16401 43.5207 8.112 42.9547 8.112C41.4163 8.125 40.2552 8.46305 39.4714 9.12615C38.6877 9.78925 38.2813 10.8294 38.2523 12.2466C38.2813 13.6508 38.6949 14.6845 39.4932 15.3476C40.306 16.0107 41.4816 16.3422 43.02 16.3422C44.1666 16.3422 45.1318 16.1537 45.9155 15.7767C46.6992 15.3996 47.1782 14.821 47.3524 14.0409H49.5076Z" fill="black"/>
<path d="M73.9738 13.2803C73.9738 14.0474 73.8577 14.6975 73.6254 15.2306C73.3932 15.7637 73.0304 16.1927 72.5369 16.5178C72.058 16.8428 71.4411 17.0769 70.6864 17.2199C69.9462 17.3629 69.0536 17.4344 68.0086 17.4344H58.1248V3.78234H72.6893V5.4986H60.2583V9.16516H68.0304C69.1334 9.16516 70.0623 9.23667 70.817 9.37969C71.5717 9.50971 72.1813 9.73725 72.6458 10.0623C73.1247 10.3873 73.4658 10.8164 73.669 11.3495C73.8722 11.8696 73.9738 12.5132 73.9738 13.2803ZM60.2583 15.7182H67.8345C68.4005 15.7182 68.9157 15.6922 69.3802 15.6401C69.8591 15.5751 70.2655 15.4581 70.5993 15.2891C70.9477 15.1201 71.2089 14.873 71.3831 14.548C71.5717 14.2229 71.6661 13.8004 71.6661 13.2803C71.6661 12.7472 71.5717 12.3246 71.3831 12.0126C71.2089 11.7005 70.9549 11.46 70.6211 11.291C70.2873 11.122 69.8809 11.0114 69.4019 10.9594C68.9375 10.9074 68.4223 10.8814 67.8562 10.8814H60.2583V15.7182Z" fill="black"/>
<path d="M89.5048 12.2271C89.4903 13.1893 89.3234 14.0279 89.0041 14.743C88.6848 15.4581 88.2276 16.0497 87.6325 16.5178C87.052 16.9858 86.3408 17.3304 85.499 17.5514C84.6718 17.7855 83.7356 17.9025 82.6906 17.9025C80.9635 17.9025 79.5267 17.5774 78.3801 16.9273C77.248 16.2772 76.5151 15.3021 76.1813 14.0019H78.3365C78.9171 15.5491 80.3684 16.3227 82.6906 16.3227C85.4337 16.3227 86.9867 15.2436 87.3495 13.0853H80.7531V11.486H87.3931C87.2334 10.3028 86.7617 9.4382 85.978 8.89212C85.2088 8.33303 84.1275 8.05349 82.7342 8.05349C81.5876 8.05349 80.637 8.24852 79.8822 8.63858C79.1275 9.02864 78.6196 9.61373 78.3583 10.3938H76.1595C76.4788 9.06764 77.219 8.086 78.3801 7.4489C79.5557 6.7988 80.9998 6.47375 82.7124 6.47375C83.7429 6.47375 84.679 6.59727 85.5208 6.84431C86.3626 7.07834 87.0738 7.4359 87.6543 7.91697C88.2494 8.38504 88.7066 8.98313 89.0259 9.71124C89.3452 10.4264 89.5048 11.265 89.5048 12.2271Z" fill="black"/>
<path d="M102.531 8.50206L95.2165 17.4344H91.9074V7.09785H93.932V15.9522L101.247 7.09785H104.556V17.4344H102.531V8.50206Z" fill="black"/>
<path d="M121.073 12.7927C121.059 13.6508 120.877 14.405 120.529 15.0551C120.195 15.7052 119.724 16.2512 119.114 16.6933C118.504 17.1224 117.772 17.4474 116.915 17.6685C116.073 17.8895 115.137 18 114.107 18C113.134 18 112.22 17.896 111.364 17.688C110.522 17.4929 109.789 17.1809 109.165 16.7518C108.541 16.3097 108.047 15.7507 107.685 15.0746C107.336 14.3855 107.162 13.5663 107.162 12.6172C107.162 12.0061 107.162 11.395 107.162 10.7839C107.177 10.1728 107.227 9.58772 107.314 9.02864C107.416 8.45655 107.576 7.91697 107.793 7.40989C108.026 6.90282 108.359 6.45425 108.795 6.06419C109.245 5.66113 109.818 5.32958 110.515 5.06954C111.226 4.7965 112.097 4.61447 113.127 4.52346C114.985 4.35443 116.436 4.19841 117.481 4.05538C118.541 3.89936 119.085 3.82135 119.114 3.82135L119.092 5.44009C118.889 5.4791 118.57 5.53111 118.134 5.59612C117.757 5.64813 117.227 5.70664 116.545 5.77165C115.878 5.83666 114.999 5.91467 113.911 6.00568C112.59 6.1097 111.552 6.39574 110.798 6.86381C110.058 7.33188 109.579 7.96898 109.361 8.7751C109.985 8.39804 110.711 8.1185 111.538 7.93647C112.38 7.74144 113.294 7.64393 114.281 7.64393C115.311 7.64393 116.248 7.74794 117.089 7.95598C117.931 8.15101 118.642 8.46305 119.223 8.89212C119.818 9.30818 120.275 9.84126 120.594 10.4914C120.914 11.1285 121.073 11.8956 121.073 12.7927ZM109.23 12.7342C109.259 13.9954 109.687 14.912 110.515 15.4841C111.357 16.0432 112.547 16.3227 114.085 16.3227C115.609 16.3227 116.799 16.0497 117.655 15.5036C118.526 14.9445 118.976 14.0279 119.005 12.7537C118.991 11.4795 118.577 10.5889 117.764 10.0818C116.952 9.56172 115.783 9.30168 114.259 9.30168C113.505 9.30168 112.815 9.36019 112.191 9.47721C111.581 9.59422 111.059 9.78925 110.624 10.0623C110.188 10.3353 109.847 10.6929 109.6 11.135C109.368 11.564 109.245 12.0971 109.23 12.7342Z" fill="black"/>
<path d="M133.975 8.50206L126.66 17.4344H123.351V7.09785H125.376V15.9522L132.691 7.09785H136V17.4344H133.975V8.50206Z" fill="black"/>
<path d="M28.4398 1.03377L27.4665 2.55295C27.3832 2.68326 27.2422 2.68124 27.1536 2.54819L26.1223 1L25.3167 1.40312L26.348 2.9513C26.4366 3.08435 26.3682 3.19117 26.1963 3.18851L24.1916 3.15951L24.2078 3.98991L26.2125 4.01895C26.2815 4.00847 26.352 4.0379 26.3882 4.09232C26.4245 4.14674 26.4187 4.21433 26.3736 4.26092L25.4004 5.78007L26.222 6.20744L27.1954 4.68826C27.2786 4.55795 27.4196 4.55997 27.5082 4.69302L28.5395 6.24121L29.3452 5.83808L28.3138 4.2899C28.2252 4.15685 28.2937 4.05003 28.4655 4.05269L30.4702 4.08169L30.454 3.25129L28.4494 3.22225C28.3803 3.23273 28.3099 3.2033 28.2736 3.14888C28.2374 3.09446 28.2432 3.02687 28.2882 2.98028L29.2615 1.46114L28.4398 1.03377Z" fill="black"/>
<path d="M98.9422 1.16682L97.9688 2.686C97.8855 2.81631 97.7446 2.81429 97.6559 2.68124L96.6246 1.13305L95.819 1.53617L96.8503 3.08435C96.939 3.21741 96.8705 3.32422 96.6987 3.32156L94.694 3.29256L94.7102 4.12296L96.7148 4.152C96.7839 4.14152 96.8543 4.17095 96.8906 4.22537C96.9268 4.27979 96.921 4.34738 96.876 4.39397L95.9027 5.91312L96.7243 6.34049L97.6977 4.82131C97.781 4.691 97.9219 4.69302 98.0106 4.82607L99.0419 6.37426L99.8475 5.97113L98.8162 4.42295C98.7276 4.2899 98.796 4.18308 98.9679 4.18574L100.973 4.21474L100.956 3.38434L98.9517 3.3553C98.8827 3.36579 98.8122 3.33635 98.776 3.28193C98.7397 3.22751 98.7455 3.15993 98.7905 3.11333L99.7638 1.59419L98.9422 1.16682Z" fill="black"/>
<path d="M5.65889 13.2998V12.7998H5.364L5.22131 13.0579L5.65889 13.2998ZM3.37299 17.4344V17.9344H3.66788L3.81056 17.6763L3.37299 17.4344ZM1 17.4344L0.561922 17.1934L0.154246 17.9344H1V17.4344ZM8.51083 3.78234V3.28234H8.21523L8.07275 3.54133L8.51083 3.78234ZM12.1247 3.78234L12.5628 3.54133L12.4203 3.28234H12.1247V3.78234ZM19.6356 17.4344V17.9344H20.4813L20.0736 17.1934L19.6356 17.4344ZM17.2408 17.4344L16.8023 17.6746L16.9445 17.9344H17.2408V17.4344ZM14.9767 13.2998L15.4152 13.0596L15.2729 12.7998H14.9767V13.2998ZM6.59502 11.5835L6.15723 11.342L5.74814 12.0835H6.59502V11.5835ZM14.0405 11.5835V12.0835H14.8874L14.4783 11.342L14.0405 11.5835ZM10.3178 4.8355L10.7556 4.59398L10.3178 3.80041L9.87999 4.59398L10.3178 4.8355ZM32.022 8.50206H32.522V7.10233L31.6351 8.18527L32.022 8.50206ZM24.7071 17.4344V17.9344H24.9439L25.0939 17.7512L24.7071 17.4344ZM21.398 17.4344H20.898V17.9344H21.398V17.4344ZM21.398 7.09785V6.59785H20.898V7.09785H21.398ZM23.4226 7.09785H23.9226V6.59785H23.4226V7.09785ZM23.4226 15.9522H22.9226V17.3425L23.8081 16.2706L23.4226 15.9522ZM30.7375 7.09785V6.59785H30.502L30.352 6.77939L30.7375 7.09785ZM34.0466 7.09785H34.5466V6.59785H34.0466V7.09785ZM34.0466 17.4344V17.9344H34.5466V17.4344H34.0466ZM32.022 17.4344H31.522V17.9344H32.022V17.4344ZM49.5076 14.0409L50.0016 14.1181L50.0918 13.5409H49.5076V14.0409ZM48.7892 15.7572L48.3918 15.4537L48.39 15.4561L48.7892 15.7572ZM47.3741 16.9663L47.1298 16.53L47.1251 16.5327L47.3741 16.9663ZM45.4148 17.688L45.3116 17.1986L45.3035 17.2005L45.4148 17.688ZM40.1899 17.5904L40.3238 17.1087L40.3189 17.1074L40.1899 17.5904ZM38.0563 16.5568L37.7472 16.9498L37.7472 16.9498L38.0563 16.5568ZM36.6848 14.782L37.1414 14.5782L37.1414 14.5782L36.6848 14.782ZM36.1841 12.2661H35.684L35.6841 12.2737L36.1841 12.2661ZM36.663 9.75025L37.1196 9.95411L37.1209 9.95105L36.663 9.75025ZM38.0128 7.95598L38.3266 8.34522L38.3271 8.3448L38.0128 7.95598ZM40.1681 6.88332L40.302 7.36509L40.3089 7.36308L40.1681 6.88332ZM45.3712 6.7663L45.2599 7.25375L45.262 7.25421L45.3712 6.7663ZM48.811 8.73609L48.4136 9.03961L48.4176 9.04468L48.811 8.73609ZM49.5294 10.4328V10.9328H50.1136L50.0234 10.3556L49.5294 10.4328ZM47.3524 10.4328L46.8652 10.5454L46.9547 10.9328H47.3524V10.4328ZM46.8299 9.4382L46.4512 9.76478L46.4559 9.77015L46.4607 9.77539L46.8299 9.4382ZM45.872 8.71659L45.6424 9.16083L45.6492 9.16422L45.872 8.71659ZM44.544 8.26802L44.4408 8.75728L44.4437 8.75786L44.544 8.26802ZM42.9547 8.112V7.61198L42.9505 7.61202L42.9547 8.112ZM39.4714 9.12615L39.7944 9.50786L39.7944 9.50786L39.4714 9.12615ZM38.2523 12.2466L37.7524 12.2364L37.7522 12.2467L37.7524 12.257L38.2523 12.2466ZM39.4932 15.3476L39.1737 15.7322L39.1771 15.735L39.4932 15.3476ZM45.9155 15.7767L46.1323 16.2272L46.1323 16.2272L45.9155 15.7767ZM47.3524 14.0409V13.5409H46.9517L46.8644 13.932L47.3524 14.0409ZM73.6254 15.2306L73.167 15.0309L73.167 15.0309L73.6254 15.2306ZM72.5369 16.5178L72.2618 16.1002L72.2561 16.1041L72.5369 16.5178ZM70.6864 17.2199L70.5933 16.7286L70.5916 16.729L70.6864 17.2199ZM58.1248 17.4344H57.6248V17.9344H58.1248V17.4344ZM58.1248 3.78234V3.28234H57.6248V3.78234H58.1248ZM72.6893 3.78234H73.1893V3.28234H72.6893V3.78234ZM72.6893 5.4986V5.9986H73.1893V5.4986H72.6893ZM60.2583 5.4986V4.9986H59.7583V5.4986H60.2583ZM60.2583 9.16516H59.7583V9.66516H60.2583V9.16516ZM70.817 9.37969L70.7239 9.87102L70.7321 9.87243L70.817 9.37969ZM72.6458 10.0623L72.359 10.472L72.365 10.476L72.6458 10.0623ZM73.669 11.3495L73.2017 11.5276L73.2033 11.5314L73.669 11.3495ZM60.2583 15.7182H59.7583V16.2182H60.2583V15.7182ZM69.3802 15.6401L69.4358 16.1372L69.4474 16.1356L69.3802 15.6401ZM70.5993 15.2891L70.381 14.8392L70.3735 14.843L70.5993 15.2891ZM71.3831 14.548L70.9506 14.297L70.9464 14.3043L70.9423 14.3118L71.3831 14.548ZM71.3831 12.0126L70.9465 12.2563L70.9507 12.2639L70.9552 12.2713L71.3831 12.0126ZM69.4019 10.9594L69.3463 11.4563L69.348 11.4565L69.4019 10.9594ZM60.2583 10.8814V10.3814H59.7583V10.8814H60.2583ZM89.5048 12.2271L90.0048 12.2347V12.2271H89.5048ZM89.0041 14.743L88.5475 14.5392L88.5475 14.5392L89.0041 14.743ZM87.6325 16.5178L87.3234 16.1248L87.3187 16.1285L87.6325 16.5178ZM85.499 17.5514L85.372 17.0677L85.3629 17.0703L85.499 17.5514ZM78.3801 16.9273L78.1311 17.3609L78.1335 17.3623L78.3801 16.9273ZM76.1813 14.0019V13.5019H75.5367L75.697 14.1262L76.1813 14.0019ZM78.3365 14.0019L78.8047 13.8262L78.683 13.5019H78.3365V14.0019ZM87.3495 13.0853L87.8426 13.1681L87.9406 12.5853H87.3495V13.0853ZM80.7531 13.0853H80.2531V13.5853H80.7531V13.0853ZM80.7531 11.486V10.986H80.2531V11.486H80.7531ZM87.3931 11.486V11.986H87.9651L87.8886 11.4192L87.3931 11.486ZM85.978 8.89212L85.684 9.29665L85.6921 9.30236L85.978 8.89212ZM79.8822 8.63858L79.6527 8.19439L79.6527 8.1944L79.8822 8.63858ZM78.3583 10.3938V10.8938H78.7182L78.8324 10.5526L78.3583 10.3938ZM76.1595 10.3938L75.6734 10.2768L75.5248 10.8938H76.1595V10.3938ZM78.3801 7.4489L78.6206 7.88725L78.622 7.88645L78.3801 7.4489ZM85.5208 6.84431L85.38 7.32412L85.3869 7.32604L85.5208 6.84431ZM87.6543 7.91697L87.3352 8.30209L87.3452 8.30996L87.6543 7.91697ZM89.0259 9.71124L88.5679 9.91205L88.5693 9.9151L89.0259 9.71124ZM102.531 8.50206H103.031V7.10233L102.145 8.18527L102.531 8.50206ZM95.2165 17.4344V17.9344H95.4533L95.6033 17.7512L95.2165 17.4344ZM91.9074 17.4344H91.4074V17.9344H91.9074V17.4344ZM91.9074 7.09785V6.59785H91.4074V7.09785H91.9074ZM93.932 7.09785H94.432V6.59785H93.932V7.09785ZM93.932 15.9522H93.432V17.3425L94.3175 16.2706L93.932 15.9522ZM101.247 7.09785V6.59785H101.011L100.861 6.77939L101.247 7.09785ZM104.556 7.09785H105.056V6.59785H104.556V7.09785ZM104.556 17.4344V17.9344H105.056V17.4344H104.556ZM102.531 17.4344H102.031V17.9344H102.531V17.4344ZM121.073 12.7927L121.573 12.8012V12.7927H121.073ZM120.529 15.0551L120.088 14.8189L120.084 14.8267L120.529 15.0551ZM119.114 16.6933L119.402 17.1022L119.408 17.0981L119.114 16.6933ZM116.915 17.6685L116.79 17.1843L116.788 17.1848L116.915 17.6685ZM111.364 17.688L111.482 17.2021L111.477 17.2009L111.364 17.688ZM109.165 16.7518L108.876 17.1599L108.882 17.1638L109.165 16.7518ZM107.685 15.0746L107.238 15.3002L107.244 15.311L107.685 15.0746ZM107.162 10.7839L106.662 10.772V10.7839H107.162ZM107.314 9.02864L106.822 8.94119L106.82 8.95169L107.314 9.02864ZM107.793 7.40989L107.339 7.20165L107.334 7.21264L107.793 7.40989ZM108.795 6.06419L108.461 5.69177L108.461 5.69177L108.795 6.06419ZM110.515 5.06954L110.69 5.53799L110.694 5.53632L110.515 5.06954ZM113.127 4.52346L113.171 5.02152L113.172 5.0214L113.127 4.52346ZM117.481 4.05538L117.549 4.55079L117.554 4.55005L117.481 4.05538ZM119.114 3.82135L119.614 3.82807L119.621 3.32135H119.114V3.82135ZM119.092 5.44009L119.187 5.93113L119.587 5.8543L119.592 5.44681L119.092 5.44009ZM118.134 5.59612L118.203 6.09147L118.208 6.09064L118.134 5.59612ZM116.545 5.77165L116.498 5.2739L116.497 5.274L116.545 5.77165ZM113.911 6.00568L113.95 6.50414L113.953 6.50394L113.911 6.00568ZM110.798 6.86381L110.534 6.43888L110.531 6.44121L110.798 6.86381ZM109.361 8.7751L108.878 8.64474L108.553 9.84709L109.619 9.20306L109.361 8.7751ZM111.538 7.93647L111.645 8.42482L111.651 8.42357L111.538 7.93647ZM117.089 7.95598L116.969 8.44142L116.977 8.44307L117.089 7.95598ZM119.223 8.89212L118.926 9.29436L118.936 9.30189L119.223 8.89212ZM120.594 10.4914L120.146 10.7118L120.147 10.7154L120.594 10.4914ZM109.23 12.7342L108.73 12.7228L108.73 12.7343L108.73 12.7457L109.23 12.7342ZM110.515 15.4841L110.23 15.8954L110.238 15.9006L110.515 15.4841ZM117.655 15.5036L117.924 15.9252L117.926 15.9244L117.655 15.5036ZM119.005 12.7537L119.505 12.7651L119.505 12.7566L119.505 12.748L119.005 12.7537ZM117.764 10.0818L117.495 10.503L117.5 10.506L117.764 10.0818ZM112.191 9.47721L112.099 8.98577L112.097 8.98617L112.191 9.47721ZM109.6 11.135L109.164 10.8913L109.161 10.897L109.6 11.135ZM133.975 8.50206H134.475V7.10233L133.589 8.18527L133.975 8.50206ZM126.66 17.4344V17.9344H126.897L127.047 17.7512L126.66 17.4344ZM123.351 17.4344H122.851V17.9344H123.351V17.4344ZM123.351 7.09785V6.59785H122.851V7.09785H123.351ZM125.376 7.09785H125.876V6.59785H125.376V7.09785ZM125.376 15.9522H124.876V17.3425L125.761 16.2706L125.376 15.9522ZM132.691 7.09785V6.59785H132.455L132.305 6.77939L132.691 7.09785ZM136 7.09785H136.5V6.59785H136V7.09785ZM136 17.4344V17.9344H136.5V17.4344H136ZM133.975 17.4344H133.475V17.9344H133.975V17.4344ZM28.4398 1.03377L28.6705 0.590183L28.2653 0.379384L28.0188 0.764027L28.4398 1.03377ZM27.4665 2.55295L27.0455 2.28321L27.0451 2.28372L27.4665 2.55295ZM27.1536 2.54819L26.7375 2.82539L26.7375 2.82539L27.1536 2.54819ZM26.1223 1L26.5384 0.722799L26.2935 0.355204L25.8985 0.552856L26.1223 1ZM25.3167 1.40312L25.0929 0.955973L24.5868 1.20926L24.9005 1.68032L25.3167 1.40312ZM26.348 2.9513L26.7641 2.67411L26.7641 2.67411L26.348 2.9513ZM26.1963 3.18851L26.204 2.68857L26.2035 2.68857L26.1963 3.18851ZM24.1916 3.15951L24.1989 2.65956L23.6816 2.65208L23.6917 3.16927L24.1916 3.15951ZM24.2078 3.98991L23.7079 3.99967L23.7174 4.48286L24.2006 4.48986L24.2078 3.98991ZM26.2125 4.01895L26.2052 4.5189L26.2466 4.5195L26.2875 4.51329L26.2125 4.01895ZM26.3882 4.09232L26.8043 3.81512L26.8043 3.81511L26.3882 4.09232ZM26.3736 4.26092L26.014 3.91355L25.9795 3.94932L25.9526 3.99119L26.3736 4.26092ZM25.4004 5.78007L24.9794 5.51034L24.6841 5.97113L25.1696 6.22365L25.4004 5.78007ZM26.222 6.20744L25.9913 6.65102L26.3965 6.86182L26.643 6.47718L26.222 6.20744ZM27.1954 4.68826L27.6164 4.958L27.6167 4.95749L27.1954 4.68826ZM27.5082 4.69302L27.0921 4.97022L27.0921 4.97022L27.5082 4.69302ZM28.5395 6.24121L28.1234 6.51841L28.3683 6.886L28.7633 6.68835L28.5395 6.24121ZM29.3452 5.83808L29.5689 6.28523L30.0751 6.03194L29.7613 5.56088L29.3452 5.83808ZM28.3138 4.2899L28.73 4.0127L28.73 4.0127L28.3138 4.2899ZM28.4655 4.05269L28.4578 4.55263L28.4583 4.55263L28.4655 4.05269ZM30.4702 4.08169L30.463 4.58164L30.9802 4.58912L30.9701 4.07193L30.4702 4.08169ZM30.454 3.25129L30.9539 3.24153L30.9445 2.75834L30.4612 2.75134L30.454 3.25129ZM28.4494 3.22225L28.4566 2.7223L28.4152 2.7217L28.3743 2.72791L28.4494 3.22225ZM28.2736 3.14888L27.8575 3.42608L27.8575 3.42609L28.2736 3.14888ZM28.2882 2.98028L28.6478 3.32765L28.6824 3.29188L28.7092 3.25001L28.2882 2.98028ZM29.2615 1.46114L29.6825 1.73087L29.9777 1.27008L29.4922 1.01755L29.2615 1.46114ZM98.9422 1.16682L99.1729 0.723235L98.7676 0.512436L98.5212 0.897079L98.9422 1.16682ZM97.9688 2.686L97.5478 2.41626L97.5475 2.41676L97.9688 2.686ZM97.6559 2.68124L98.0721 2.40404L98.0721 2.40404L97.6559 2.68124ZM96.6246 1.13305L97.0408 0.855851L96.7959 0.488256L96.4009 0.685907L96.6246 1.13305ZM95.819 1.53617L95.5953 1.08902L95.0891 1.34231L95.4029 1.81337L95.819 1.53617ZM96.8503 3.08435L97.2665 2.80716L97.2665 2.80716L96.8503 3.08435ZM96.6987 3.32156L96.7064 2.82162L96.7059 2.82162L96.6987 3.32156ZM94.694 3.29256L94.7012 2.79261L94.184 2.78513L94.1941 3.30232L94.694 3.29256ZM94.7102 4.12296L94.2103 4.13272L94.2197 4.61591L94.703 4.62291L94.7102 4.12296ZM96.7148 4.152L96.7076 4.65195L96.7489 4.65255L96.7898 4.64634L96.7148 4.152ZM96.8906 4.22537L96.4744 4.50255L96.4744 4.50259L96.8906 4.22537ZM96.876 4.39397L96.5163 4.04662L96.4818 4.08238L96.455 4.12425L96.876 4.39397ZM95.9027 5.91312L95.4817 5.64339L95.1865 6.10418L95.672 6.3567L95.9027 5.91312ZM96.7243 6.34049L96.4936 6.78407L96.8989 6.99488L97.1453 6.61023L96.7243 6.34049ZM97.6977 4.82131L98.1187 5.09105L98.119 5.09055L97.6977 4.82131ZM98.0106 4.82607L97.5944 5.10327L97.5944 5.10327L98.0106 4.82607ZM99.0419 6.37426L98.6258 6.65146L98.8706 7.01906L99.2656 6.8214L99.0419 6.37426ZM99.8475 5.97113L100.071 6.41828L100.577 6.16499L100.264 5.69394L99.8475 5.97113ZM98.8162 4.42295L99.2323 4.14575L99.2323 4.14573L98.8162 4.42295ZM98.9679 4.18574L98.9601 4.68568L98.9606 4.68569L98.9679 4.18574ZM100.973 4.21474L100.965 4.71469L101.483 4.72217L101.472 4.20498L100.973 4.21474ZM100.956 3.38434L101.456 3.37458L101.447 2.89139L100.964 2.88439L100.956 3.38434ZM98.9517 3.3553L98.959 2.85535L98.9176 2.85475L98.8767 2.86097L98.9517 3.3553ZM98.7905 3.11333L99.1502 3.46069L99.1847 3.42492L99.2115 3.38306L98.7905 3.11333ZM99.7638 1.59419L100.185 1.86392L100.48 1.40313L99.9945 1.1506L99.7638 1.59419ZM5.22131 13.0579L2.93541 17.1925L3.81056 17.6763L6.09647 13.5417L5.22131 13.0579ZM3.37299 16.9344H1V17.9344H3.37299V16.9344ZM1.43808 17.6754L8.94891 4.02336L8.07275 3.54133L0.561922 17.1934L1.43808 17.6754ZM8.51083 4.28234H12.1247V3.28234H8.51083V4.28234ZM11.6867 4.02336L19.1975 17.6754L20.0736 17.1934L12.5628 3.54133L11.6867 4.02336ZM19.6356 16.9344H17.2408V17.9344H19.6356V16.9344ZM17.6794 17.1943L15.4152 13.0596L14.5381 13.5399L16.8023 17.6746L17.6794 17.1943ZM14.9767 12.7998H5.65889V13.7998H14.9767V12.7998ZM6.59502 12.0835H14.0405V11.0835H6.59502V12.0835ZM14.4783 11.342L10.7556 4.59398L9.87999 5.07703L13.6027 11.8251L14.4783 11.342ZM9.87999 4.59398L6.15723 11.342L7.03282 11.8251L10.7556 5.07703L9.87999 4.59398ZM31.6351 8.18527L24.3202 17.1176L25.0939 17.7512L32.4088 8.81885L31.6351 8.18527ZM24.7071 16.9344H21.398V17.9344H24.7071V16.9344ZM21.898 17.4344V7.09785H20.898V17.4344H21.898ZM21.398 7.59785H23.4226V6.59785H21.398V7.59785ZM22.9226 7.09785V15.9522H23.9226V7.09785H22.9226ZM23.8081 16.2706L31.123 7.4163L30.352 6.77939L23.0371 15.6337L23.8081 16.2706ZM30.7375 7.59785H34.0466V6.59785H30.7375V7.59785ZM33.5466 7.09785V17.4344H34.5466V7.09785H33.5466ZM34.0466 16.9344H32.022V17.9344H34.0466V16.9344ZM32.522 17.4344V8.50206H31.522V17.4344H32.522ZM49.0136 13.9637C48.9241 14.5365 48.7157 15.0297 48.3919 15.4537L49.1866 16.0606C49.6174 15.4965 49.888 14.8455 50.0016 14.1181L49.0136 13.9637ZM48.39 15.4561C48.0731 15.8763 47.6563 16.2353 47.1299 16.5301L47.6184 17.4026C48.253 17.0473 48.7797 16.6001 49.1884 16.0582L48.39 15.4561ZM47.1251 16.5327C46.6111 16.828 46.0086 17.0518 45.3117 17.1987L45.5179 18.1772C46.3014 18.0121 47.0051 17.7548 47.6231 17.3999L47.1251 16.5327ZM45.3035 17.2005C44.6041 17.3602 43.8436 17.4415 43.02 17.4415V18.4415C43.9091 18.4415 44.7451 18.3537 45.5261 18.1754L45.3035 17.2005ZM43.02 17.4415C42.0117 17.4415 41.1144 17.3285 40.3238 17.1087L40.0559 18.0722C40.9489 18.3204 41.9383 18.4415 43.02 18.4415V17.4415ZM40.3189 17.1074C39.5486 16.9016 38.9007 16.5848 38.3655 16.1638L37.7472 16.9498C38.4021 17.4649 39.1766 17.8372 40.0608 18.0735L40.3189 17.1074ZM38.3655 16.1638C37.8364 15.7476 37.4288 15.2218 37.1414 14.5782L36.2282 14.9859C36.5794 15.7724 37.0862 16.4298 37.7472 16.9498L38.3655 16.1638ZM37.1414 14.5782C36.8552 13.9373 36.6977 13.1681 36.684 12.2586L35.6841 12.2737C35.6994 13.2885 35.8758 14.1965 36.2282 14.9859L37.1414 14.5782ZM36.6841 12.2661C36.6841 11.3586 36.8347 10.5922 37.1196 9.9541L36.2065 9.54639C35.8528 10.3385 35.6841 11.2494 35.6841 12.2661H36.6841ZM37.1209 9.95105C37.4102 9.29141 37.8126 8.75963 38.3266 8.34522L37.699 7.56673C37.0519 8.08846 36.5545 8.75286 36.2051 9.54944L37.1209 9.95105ZM38.3271 8.3448C38.862 7.91238 39.5168 7.58336 40.302 7.36504L40.0342 6.40159C39.1358 6.65135 38.3537 7.03742 37.6985 7.56715L38.3271 8.3448ZM40.3089 7.36308C41.0978 7.13156 41.9856 7.01276 42.9765 7.01276V6.01276C41.9064 6.01276 40.922 6.14099 40.0273 6.40355L40.3089 7.36308ZM42.9765 7.01276C43.8 7.01276 44.5605 7.09404 45.2599 7.25375L45.4825 6.27884C44.7015 6.1005 43.8656 6.01276 42.9765 6.01276V7.01276ZM45.262 7.25421C45.9769 7.41433 46.5978 7.64577 47.1299 7.94368L47.6184 7.07114C46.9894 6.71895 46.275 6.45632 45.4805 6.27838L45.262 7.25421ZM47.1299 7.94368C47.6551 8.23776 48.0805 8.60349 48.4136 9.03958L49.2083 8.4326C48.7867 7.88055 48.2543 7.42716 47.6184 7.07114L47.1299 7.94368ZM48.4176 9.04468C48.7382 9.45341 48.946 9.93779 49.0354 10.5101L50.0234 10.3556C49.9097 9.62772 49.6385 8.98092 49.2044 8.4275L48.4176 9.04468ZM49.5294 9.93285H47.3524V10.9328H49.5294V9.93285ZM47.8395 10.3203C47.7331 9.85939 47.5182 9.45048 47.199 9.10101L46.4607 9.77539C46.664 9.99801 46.7975 10.2522 46.8652 10.5454L47.8395 10.3203ZM47.2085 9.11162C46.912 8.76794 46.5367 8.48894 46.0947 8.26896L45.6492 9.16422C45.9909 9.3343 46.2542 9.53638 46.4512 9.76478L47.2085 9.11162ZM46.1015 8.27241C45.6756 8.05226 45.1877 7.88946 44.6443 7.77819L44.4437 8.75786C44.9162 8.85461 45.3136 8.99086 45.6424 9.16077L46.1015 8.27241ZM44.6471 7.77877C44.1159 7.6668 43.5513 7.612 42.9547 7.612V8.612C43.4902 8.612 43.9851 8.66121 44.4408 8.75727L44.6471 7.77877ZM42.9505 7.61202C41.3513 7.62553 40.0564 7.97624 39.1485 8.74445L39.7944 9.50786C40.4539 8.94986 41.4812 8.62447 42.9589 8.61198L42.9505 7.61202ZM39.1485 8.74444C38.2182 9.53154 37.7832 10.7326 37.7524 12.2364L38.7522 12.2569C38.7794 10.9263 39.1572 10.047 39.7944 9.50786L39.1485 8.74444ZM37.7524 12.257C37.7833 13.7523 38.2282 14.9468 39.1737 15.7322L39.8127 14.963C39.1617 14.4222 38.7793 13.5494 38.7522 12.2363L37.7524 12.257ZM39.1771 15.735C40.1125 16.4982 41.4185 16.8422 43.02 16.8422V15.8422C41.5447 15.8422 40.4994 15.5232 39.8093 14.9602L39.1771 15.735ZM43.02 16.8422C44.2188 16.8422 45.2629 16.6455 46.1323 16.2272L45.6987 15.3261C45.0006 15.662 44.1144 15.8422 43.02 15.8422V16.8422ZM46.1323 16.2272C47.04 15.7905 47.6296 15.0938 47.8403 14.1498L46.8644 13.932C46.7268 14.5482 46.3585 15.0087 45.6987 15.3261L46.1323 16.2272ZM47.3524 14.5409H49.5076V13.5409H47.3524V14.5409ZM73.4738 13.2803C73.4738 13.9996 73.3646 14.5775 73.167 15.0309L74.0838 15.4303C74.3507 14.8175 74.4738 14.0952 74.4738 13.2803H73.4738ZM73.167 15.0309C72.9742 15.4736 72.6758 15.8276 72.2619 16.1002L72.8119 16.9353C73.385 16.5579 73.8122 16.0537 74.0838 15.4303L73.167 15.0309ZM72.2561 16.1041C71.849 16.3803 71.3017 16.5944 70.5933 16.7286L70.7795 17.7111C71.5806 17.5593 72.2669 17.3053 72.8177 16.9315L72.2561 16.1041ZM70.5916 16.729C69.892 16.8641 69.033 16.9344 68.0086 16.9344V17.9344C69.0742 17.9344 70.0005 17.8617 70.7813 17.7108L70.5916 16.729ZM68.0086 16.9344H58.1248V17.9344H68.0086V16.9344ZM58.6248 17.4344V3.78234H57.6248V17.4344H58.6248ZM58.1248 4.28234H72.6893V3.28234H58.1248V4.28234ZM72.1893 3.78234V5.4986H73.1893V3.78234H72.1893ZM72.6893 4.9986H60.2583V5.9986H72.6893V4.9986ZM59.7583 5.4986V9.16516H60.7583V5.4986H59.7583ZM60.2583 9.66516H68.0304V8.66516H60.2583V9.66516ZM68.0304 9.66516C69.1145 9.66516 70.01 9.73565 70.7239 9.87095L70.9101 8.88843C70.1147 8.73769 69.1524 8.66516 68.0304 8.66516V9.66516ZM70.7321 9.87243C71.4384 9.99411 71.9722 10.2012 72.3591 10.4719L72.9325 9.65265C72.3904 9.27329 71.7051 9.02531 70.9019 8.88695L70.7321 9.87243ZM72.365 10.476C72.7604 10.7444 73.0356 11.0918 73.2018 11.5276L74.1362 11.1714C73.8959 10.541 73.489 10.0303 72.9265 9.64858L72.365 10.476ZM73.2033 11.5314C73.377 11.9763 73.4738 12.5537 73.4738 13.2803H74.4738C74.4738 12.4726 74.3673 11.7629 74.1347 11.1675L73.2033 11.5314ZM60.2583 16.2182H67.8345V15.2182H60.2583V16.2182ZM67.8345 16.2182C68.4154 16.2182 68.9495 16.1915 69.4358 16.137L69.3245 15.1432C68.8819 15.1928 68.3856 15.2182 67.8345 15.2182V16.2182ZM69.4474 16.1356C69.9663 16.0652 70.4295 15.9355 70.8252 15.7352L70.3735 14.843C70.1015 14.9807 69.7519 15.0851 69.3129 15.1447L69.4474 16.1356ZM70.8176 15.7389C71.2557 15.5263 71.5973 15.2069 71.8238 14.7841L70.9423 14.3118C70.8205 14.5392 70.6396 14.7138 70.381 14.8393L70.8176 15.7389ZM71.8155 14.799C72.0622 14.3739 72.1661 13.8562 72.1661 13.2803H71.1661C71.1661 13.7445 71.0813 14.0719 70.9506 14.297L71.8155 14.799ZM72.1661 13.2803C72.1661 12.6955 72.0637 12.172 71.8109 11.7539L70.9552 12.2713C71.0797 12.4773 71.1661 12.7989 71.1661 13.2803H72.1661ZM71.8197 11.7689C71.5946 11.3657 71.2652 11.0567 70.847 10.8449L70.3952 11.7371C70.6446 11.8633 70.8232 12.0354 70.9465 12.2563L71.8197 11.7689ZM70.847 10.8449C70.4464 10.6421 69.9784 10.5191 69.4559 10.4624L69.348 11.4565C69.7834 11.5038 70.1281 11.6018 70.3952 11.7371L70.847 10.8449ZM69.4576 10.4625C68.9713 10.4081 68.4371 10.3814 67.8562 10.3814V11.3814C68.4074 11.3814 68.9037 11.4068 69.3463 11.4563L69.4576 10.4625ZM67.8562 10.3814H60.2583V11.3814H67.8562V10.3814ZM59.7583 10.8814V15.7182H60.7583V10.8814H59.7583ZM89.0049 12.2196C88.9911 13.1291 88.8337 13.8983 88.5475 14.5392L89.4606 14.9469C89.8131 14.1575 89.9894 13.2495 90.0047 12.2347L89.0049 12.2196ZM88.5475 14.5392C88.2601 15.1828 87.8525 15.7086 87.3234 16.1248L87.9417 16.9108C88.6027 16.3908 89.1094 15.7334 89.4606 14.9469L88.5475 14.5392ZM87.3187 16.1285C86.8015 16.5455 86.1569 16.8617 85.3721 17.0678L85.626 18.035C86.5248 17.7991 87.3025 17.4262 87.9464 16.907L87.3187 16.1285ZM85.3629 17.0703C84.5882 17.2895 83.6991 17.4025 82.6906 17.4025V18.4025C83.7721 18.4025 84.7553 18.2815 85.6351 18.0326L85.3629 17.0703ZM82.6906 17.4025C81.0239 17.4025 79.6783 17.0886 78.6267 16.4924L78.1335 17.3623C79.3751 18.0663 80.9031 18.4025 82.6906 18.4025V17.4025ZM78.6291 16.4937C77.6176 15.9129 76.9669 15.0513 76.6656 13.8776L75.697 14.1262C76.0632 15.5529 76.8784 16.6416 78.1311 17.3609L78.6291 16.4937ZM76.1813 14.5019H78.3365V13.5019H76.1813V14.5019ZM77.8684 14.1775C78.2012 15.0645 78.7917 15.7394 79.6253 16.1838C80.447 16.6218 81.4793 16.8227 82.6906 16.8227V15.8227C81.5798 15.8227 80.7253 15.6369 80.0957 15.3013C79.4779 14.972 79.0524 14.4865 78.8047 13.8262L77.8684 14.1775ZM82.6906 16.8227C84.1203 16.8227 85.3078 16.5426 86.198 15.924C87.1026 15.2954 87.6427 14.3574 87.8426 13.1681L86.8564 13.0024C86.6935 13.9715 86.2757 14.6522 85.6273 15.1028C84.9646 15.5633 84.004 15.8227 82.6906 15.8227V16.8227ZM87.3495 12.5853H80.7531V13.5853H87.3495V12.5853ZM81.2531 13.0853V11.486H80.2531V13.0853H81.2531ZM80.7531 11.986H87.3931V10.986H80.7531V11.986ZM87.8886 11.4192C87.7152 10.1343 87.19 9.12718 86.2638 8.48188L85.6921 9.30236C86.3335 9.74922 86.7516 10.4713 86.8976 11.5529L87.8886 11.4192ZM86.2719 8.48766C85.3858 7.84363 84.1861 7.55349 82.7342 7.55349V8.55349C84.0688 8.55349 85.0317 8.82244 85.684 9.29657L86.2719 8.48766ZM82.7342 7.55349C81.5344 7.55349 80.4988 7.75712 79.6527 8.19439L80.1118 9.08276C80.7752 8.73992 81.6408 8.55349 82.7342 8.55349V7.55349ZM79.6527 8.1944C78.7866 8.642 78.1882 9.32722 77.8842 10.2351L78.8324 10.5526C79.0509 9.90023 79.4684 9.41528 80.1118 9.08276L79.6527 8.1944ZM78.3583 9.89384H76.1595V10.8938H78.3583V9.89384ZM76.6456 10.5109C76.9331 9.31693 77.5871 8.45433 78.6206 7.88725L78.1396 7.01055C76.8509 7.71766 76.0245 8.81836 75.6734 10.2768L76.6456 10.5109ZM78.622 7.88645C79.7059 7.28707 81.0617 6.97375 82.7124 6.97375V5.97375C80.9379 5.97375 79.4054 6.31053 78.1381 7.01134L78.622 7.88645ZM82.7124 6.97375C83.7033 6.97375 84.5911 7.09256 85.38 7.32407L85.6616 6.36454C84.7669 6.10198 83.7824 5.97375 82.7124 5.97375V6.97375ZM85.3869 7.32604C86.1715 7.54419 86.8169 7.87239 87.3353 8.30197L87.9733 7.53197C87.3306 6.99941 86.5536 6.6125 85.6547 6.36258L85.3869 7.32604ZM87.3452 8.30996C87.8723 8.72461 88.28 9.25536 88.568 9.91205L89.4838 9.51044C89.1331 8.7109 88.6264 8.04547 87.9634 7.52398L87.3452 8.30996ZM88.5693 9.9151C88.8542 10.5532 89.0048 11.3196 89.0048 12.2271H90.0048C90.0048 11.2104 89.8361 10.2995 89.4824 9.50738L88.5693 9.9151ZM102.145 8.18527L94.8297 17.1176L95.6033 17.7512L102.918 8.81885L102.145 8.18527ZM95.2165 16.9344H91.9074V17.9344H95.2165V16.9344ZM92.4074 17.4344V7.09785H91.4074V17.4344H92.4074ZM91.9074 7.59785H93.932V6.59785H91.9074V7.59785ZM93.432 7.09785V15.9522H94.432V7.09785H93.432ZM94.3175 16.2706L101.632 7.4163L100.861 6.77939L93.5466 15.6337L94.3175 16.2706ZM101.247 7.59785H104.556V6.59785H101.247V7.59785ZM104.056 7.09785V17.4344H105.056V7.09785H104.056ZM104.556 16.9344H102.531V17.9344H104.556V16.9344ZM103.031 17.4344V8.50206H102.031V17.4344H103.031ZM120.573 12.7843C120.56 13.5759 120.393 14.2496 120.088 14.8189L120.97 15.2912C121.361 14.5603 121.558 13.7258 121.573 12.8012L120.573 12.7843ZM120.084 14.8267C119.788 15.4047 119.369 15.8911 118.821 16.2885L119.408 17.0981C120.079 16.6113 120.603 16.0056 120.974 15.2834L120.084 14.8267ZM118.826 16.2844C118.274 16.673 117.599 16.9756 116.79 17.1843L117.04 18.1526C117.944 17.9192 118.735 17.5717 119.402 17.1022L118.826 16.2844ZM116.788 17.1848C115.995 17.3932 115.102 17.5 114.107 17.5V18.5C115.173 18.5 116.152 18.3858 117.042 18.1521L116.788 17.1848ZM114.107 17.5C113.17 17.5 112.296 17.3998 111.482 17.2021L111.246 18.1738C112.144 18.3921 113.099 18.5 114.107 18.5V17.5ZM111.477 17.2009C110.687 17.018 110.014 16.7287 109.448 16.3398L108.882 17.1638C109.564 17.633 110.357 17.9679 111.251 18.175L111.477 17.2009ZM109.454 16.3438C108.893 15.9466 108.452 15.4463 108.125 14.8381L107.244 15.311C107.643 16.055 108.189 16.6729 108.876 17.1598L109.454 16.3438ZM108.131 14.849C107.825 14.244 107.662 13.5056 107.662 12.6172H106.662C106.662 13.627 106.847 14.5269 107.238 15.3001L108.131 14.849ZM107.662 12.6172C107.662 12.616 107.662 12.6148 107.662 12.6136C107.662 12.6124 107.662 12.6112 107.662 12.61C107.662 12.6088 107.662 12.6076 107.662 12.6064C107.662 12.6052 107.662 12.6041 107.662 12.6029C107.662 12.6017 107.662 12.6005 107.662 12.5993C107.662 12.5981 107.662 12.5969 107.662 12.5957C107.662 12.5945 107.662 12.5933 107.662 12.5921C107.662 12.5909 107.662 12.5897 107.662 12.5885C107.662 12.5873 107.662 12.5862 107.662 12.585C107.662 12.5838 107.662 12.5826 107.662 12.5814C107.662 12.5802 107.662 12.579 107.662 12.5778C107.662 12.5766 107.662 12.5754 107.662 12.5742C107.662 12.573 107.662 12.5718 107.662 12.5706C107.662 12.5694 107.662 12.5682 107.662 12.5671C107.662 12.5659 107.662 12.5647 107.662 12.5635C107.662 12.5623 107.662 12.5611 107.662 12.5599C107.662 12.5587 107.662 12.5575 107.662 12.5563C107.662 12.5551 107.662 12.5539 107.662 12.5527C107.662 12.5515 107.662 12.5503 107.662 12.5492C107.662 12.548 107.662 12.5468 107.662 12.5456C107.662 12.5444 107.662 12.5432 107.662 12.542C107.662 12.5408 107.662 12.5396 107.662 12.5384C107.662 12.5372 107.662 12.536 107.662 12.5348C107.662 12.5336 107.662 12.5324 107.662 12.5312C107.662 12.5301 107.662 12.5289 107.662 12.5277C107.662 12.5265 107.662 12.5253 107.662 12.5241C107.662 12.5229 107.662 12.5217 107.662 12.5205C107.662 12.5193 107.662 12.5181 107.662 12.5169C107.662 12.5157 107.662 12.5145 107.662 12.5133C107.662 12.5122 107.662 12.511 107.662 12.5098C107.662 12.5086 107.662 12.5074 107.662 12.5062C107.662 12.505 107.662 12.5038 107.662 12.5026C107.662 12.5014 107.662 12.5002 107.662 12.499C107.662 12.4978 107.662 12.4966 107.662 12.4954C107.662 12.4942 107.662 12.4931 107.662 12.4919C107.662 12.4907 107.662 12.4895 107.662 12.4883C107.662 12.4871 107.662 12.4859 107.662 12.4847C107.662 12.4835 107.662 12.4823 107.662 12.4811C107.662 12.4799 107.662 12.4787 107.662 12.4775C107.662 12.4763 107.662 12.4752 107.662 12.474C107.662 12.4728 107.662 12.4716 107.662 12.4704C107.662 12.4692 107.662 12.468 107.662 12.4668C107.662 12.4656 107.662 12.4644 107.662 12.4632C107.662 12.462 107.662 12.4608 107.662 12.4596C107.662 12.4584 107.662 12.4572 107.662 12.4561C107.662 12.4549 107.662 12.4537 107.662 12.4525C107.662 12.4513 107.662 12.4501 107.662 12.4489C107.662 12.4477 107.662 12.4465 107.662 12.4453C107.662 12.4441 107.662 12.4429 107.662 12.4417C107.662 12.4405 107.662 12.4393 107.662 12.4382C107.662 12.437 107.662 12.4358 107.662 12.4346C107.662 12.4334 107.662 12.4322 107.662 12.431C107.662 12.4298 107.662 12.4286 107.662 12.4274C107.662 12.4262 107.662 12.425 107.662 12.4238C107.662 12.4226 107.662 12.4214 107.662 12.4202C107.662 12.4191 107.662 12.4179 107.662 12.4167C107.662 12.4155 107.662 12.4143 107.662 12.4131C107.662 12.4119 107.662 12.4107 107.662 12.4095C107.662 12.4083 107.662 12.4071 107.662 12.4059C107.662 12.4047 107.662 12.4035 107.662 12.4023C107.662 12.4012 107.662 12.4 107.662 12.3988C107.662 12.3976 107.662 12.3964 107.662 12.3952C107.662 12.394 107.662 12.3928 107.662 12.3916C107.662 12.3904 107.662 12.3892 107.662 12.388C107.662 12.3868 107.662 12.3856 107.662 12.3844C107.662 12.3832 107.662 12.3821 107.662 12.3809C107.662 12.3797 107.662 12.3785 107.662 12.3773C107.662 12.3761 107.662 12.3749 107.662 12.3737C107.662 12.3725 107.662 12.3713 107.662 12.3701C107.662 12.3689 107.662 12.3677 107.662 12.3665C107.662 12.3653 107.662 12.3642 107.662 12.363C107.662 12.3618 107.662 12.3606 107.662 12.3594C107.662 12.3582 107.662 12.357 107.662 12.3558C107.662 12.3546 107.662 12.3534 107.662 12.3522C107.662 12.351 107.662 12.3498 107.662 12.3486C107.662 12.3474 107.662 12.3462 107.662 12.3451C107.662 12.3439 107.662 12.3427 107.662 12.3415C107.662 12.3403 107.662 12.3391 107.662 12.3379C107.662 12.3367 107.662 12.3355 107.662 12.3343C107.662 12.3331 107.662 12.3319 107.662 12.3307C107.662 12.3295 107.662 12.3283 107.662 12.3272C107.662 12.326 107.662 12.3248 107.662 12.3236C107.662 12.3224 107.662 12.3212 107.662 12.32C107.662 12.3188 107.662 12.3176 107.662 12.3164C107.662 12.3152 107.662 12.314 107.662 12.3128C107.662 12.3116 107.662 12.3104 107.662 12.3092C107.662 12.3081 107.662 12.3069 107.662 12.3057C107.662 12.3045 107.662 12.3033 107.662 12.3021C107.662 12.3009 107.662 12.2997 107.662 12.2985C107.662 12.2973 107.662 12.2961 107.662 12.2949C107.662 12.2937 107.662 12.2925 107.662 12.2913C107.662 12.2902 107.662 12.289 107.662 12.2878C107.662 12.2866 107.662 12.2854 107.662 12.2842C107.662 12.283 107.662 12.2818 107.662 12.2806C107.662 12.2794 107.662 12.2782 107.662 12.277C107.662 12.2758 107.662 12.2746 107.662 12.2734C107.662 12.2722 107.662 12.2711 107.662 12.2699C107.662 12.2687 107.662 12.2675 107.662 12.2663C107.662 12.2651 107.662 12.2639 107.662 12.2627C107.662 12.2615 107.662 12.2603 107.662 12.2591C107.662 12.2579 107.662 12.2567 107.662 12.2555C107.662 12.2543 107.662 12.2532 107.662 12.252C107.662 12.2508 107.662 12.2496 107.662 12.2484C107.662 12.2472 107.662 12.246 107.662 12.2448C107.662 12.2436 107.662 12.2424 107.662 12.2412C107.662 12.24 107.662 12.2388 107.662 12.2376C107.662 12.2364 107.662 12.2352 107.662 12.2341C107.662 12.2329 107.662 12.2317 107.662 12.2305C107.662 12.2293 107.662 12.2281 107.662 12.2269C107.662 12.2257 107.662 12.2245 107.662 12.2233C107.662 12.2221 107.662 12.2209 107.662 12.2197C107.662 12.2185 107.662 12.2173 107.662 12.2162C107.662 12.215 107.662 12.2138 107.662 12.2126C107.662 12.2114 107.662 12.2102 107.662 12.209C107.662 12.2078 107.662 12.2066 107.662 12.2054C107.662 12.2042 107.662 12.203 107.662 12.2018C107.662 12.2006 107.662 12.1994 107.662 12.1983C107.662 12.1971 107.662 12.1959 107.662 12.1947C107.662 12.1935 107.662 12.1923 107.662 12.1911C107.662 12.1899 107.662 12.1887 107.662 12.1875C107.662 12.1863 107.662 12.1851 107.662 12.1839C107.662 12.1827 107.662 12.1815 107.662 12.1803C107.662 12.1792 107.662 12.178 107.662 12.1768C107.662 12.1756 107.662 12.1744 107.662 12.1732C107.662 12.172 107.662 12.1708 107.662 12.1696C107.662 12.1684 107.662 12.1672 107.662 12.166C107.662 12.1648 107.662 12.1636 107.662 12.1624C107.662 12.1613 107.662 12.1601 107.662 12.1589C107.662 12.1577 107.662 12.1565 107.662 12.1553C107.662 12.1541 107.662 12.1529 107.662 12.1517C107.662 12.1505 107.662 12.1493 107.662 12.1481C107.662 12.1469 107.662 12.1457 107.662 12.1445C107.662 12.1433 107.662 12.1422 107.662 12.141C107.662 12.1398 107.662 12.1386 107.662 12.1374C107.662 12.1362 107.662 12.135 107.662 12.1338C107.662 12.1326 107.662 12.1314 107.662 12.1302C107.662 12.129 107.662 12.1278 107.662 12.1266C107.662 12.1254 107.662 12.1243 107.662 12.1231C107.662 12.1219 107.662 12.1207 107.662 12.1195C107.662 12.1183 107.662 12.1171 107.662 12.1159C107.662 12.1147 107.662 12.1135 107.662 12.1123C107.662 12.1111 107.662 12.1099 107.662 12.1087C107.662 12.1075 107.662 12.1063 107.662 12.1052C107.662 12.104 107.662 12.1028 107.662 12.1016C107.662 12.1004 107.662 12.0992 107.662 12.098C107.662 12.0968 107.662 12.0956 107.662 12.0944C107.662 12.0932 107.662 12.092 107.662 12.0908C107.662 12.0896 107.662 12.0884 107.662 12.0873C107.662 12.0861 107.662 12.0849 107.662 12.0837C107.662 12.0825 107.662 12.0813 107.662 12.0801C107.662 12.0789 107.662 12.0777 107.662 12.0765C107.662 12.0753 107.662 12.0741 107.662 12.0729C107.662 12.0717 107.662 12.0705 107.662 12.0693C107.662 12.0682 107.662 12.067 107.662 12.0658C107.662 12.0646 107.662 12.0634 107.662 12.0622C107.662 12.061 107.662 12.0598 107.662 12.0586C107.662 12.0574 107.662 12.0562 107.662 12.055C107.662 12.0538 107.662 12.0526 107.662 12.0514C107.662 12.0503 107.662 12.0491 107.662 12.0479C107.662 12.0467 107.662 12.0455 107.662 12.0443C107.662 12.0431 107.662 12.0419 107.662 12.0407C107.662 12.0395 107.662 12.0383 107.662 12.0371C107.662 12.0359 107.662 12.0347 107.662 12.0335C107.662 12.0323 107.662 12.0312 107.662 12.03C107.662 12.0288 107.662 12.0276 107.662 12.0264C107.662 12.0252 107.662 12.024 107.662 12.0228C107.662 12.0216 107.662 12.0204 107.662 12.0192C107.662 12.018 107.662 12.0168 107.662 12.0156C107.662 12.0144 107.662 12.0133 107.662 12.0121C107.662 12.0109 107.662 12.0097 107.662 12.0085C107.662 12.0073 107.662 12.0061 107.662 12.0049C107.662 12.0037 107.662 12.0025 107.662 12.0013C107.662 12.0001 107.662 11.9989 107.662 11.9977C107.662 11.9965 107.662 11.9953 107.662 11.9942C107.662 11.993 107.662 11.9918 107.662 11.9906C107.662 11.9894 107.662 11.9882 107.662 11.987C107.662 11.9858 107.662 11.9846 107.662 11.9834C107.662 11.9822 107.662 11.981 107.662 11.9798C107.662 11.9786 107.662 11.9774 107.662 11.9763C107.662 11.9751 107.662 11.9739 107.662 11.9727C107.662 11.9715 107.662 11.9703 107.662 11.9691C107.662 11.9679 107.662 11.9667 107.662 11.9655C107.662 11.9643 107.662 11.9631 107.662 11.9619C107.662 11.9607 107.662 11.9595 107.662 11.9583C107.662 11.9572 107.662 11.956 107.662 11.9548C107.662 11.9536 107.662 11.9524 107.662 11.9512C107.662 11.95 107.662 11.9488 107.662 11.9476C107.662 11.9464 107.662 11.9452 107.662 11.944C107.662 11.9428 107.662 11.9416 107.662 11.9404C107.662 11.9393 107.662 11.9381 107.662 11.9369C107.662 11.9357 107.662 11.9345 107.662 11.9333C107.662 11.9321 107.662 11.9309 107.662 11.9297C107.662 11.9285 107.662 11.9273 107.662 11.9261C107.662 11.9249 107.662 11.9237 107.662 11.9225C107.662 11.9213 107.662 11.9202 107.662 11.919C107.662 11.9178 107.662 11.9166 107.662 11.9154C107.662 11.9142 107.662 11.913 107.662 11.9118C107.662 11.9106 107.662 11.9094 107.662 11.9082C107.662 11.907 107.662 11.9058 107.662 11.9046C107.662 11.9034 107.662 11.9023 107.662 11.9011C107.662 11.8999 107.662 11.8987 107.662 11.8975C107.662 11.8963 107.662 11.8951 107.662 11.8939C107.662 11.8927 107.662 11.8915 107.662 11.8903C107.662 11.8891 107.662 11.8879 107.662 11.8867C107.662 11.8855 107.662 11.8843 107.662 11.8832C107.662 11.882 107.662 11.8808 107.662 11.8796C107.662 11.8784 107.662 11.8772 107.662 11.876C107.662 11.8748 107.662 11.8736 107.662 11.8724C107.662 11.8712 107.662 11.87 107.662 11.8688C107.662 11.8676 107.662 11.8664 107.662 11.8653C107.662 11.8641 107.662 11.8629 107.662 11.8617C107.662 11.8605 107.662 11.8593 107.662 11.8581C107.662 11.8569 107.662 11.8557 107.662 11.8545C107.662 11.8533 107.662 11.8521 107.662 11.8509C107.662 11.8497 107.662 11.8485 107.662 11.8473C107.662 11.8462 107.662 11.845 107.662 11.8438C107.662 11.8426 107.662 11.8414 107.662 11.8402C107.662 11.839 107.662 11.8378 107.662 11.8366C107.662 11.8354 107.662 11.8342 107.662 11.833C107.662 11.8318 107.662 11.8306 107.662 11.8294C107.662 11.8283 107.662 11.8271 107.662 11.8259C107.662 11.8247 107.662 11.8235 107.662 11.8223C107.662 11.8211 107.662 11.8199 107.662 11.8187C107.662 11.8175 107.662 11.8163 107.662 11.8151C107.662 11.8139 107.662 11.8127 107.662 11.8115C107.662 11.8103 107.662 11.8092 107.662 11.808C107.662 11.8068 107.662 11.8056 107.662 11.8044C107.662 11.8032 107.662 11.802 107.662 11.8008C107.662 11.7996 107.662 11.7984 107.662 11.7972C107.662 11.796 107.662 11.7948 107.662 11.7936C107.662 11.7924 107.662 11.7913 107.662 11.7901C107.662 11.7889 107.662 11.7877 107.662 11.7865C107.662 11.7853 107.662 11.7841 107.662 11.7829C107.662 11.7817 107.662 11.7805 107.662 11.7793C107.662 11.7781 107.662 11.7769 107.662 11.7757C107.662 11.7745 107.662 11.7734 107.662 11.7722C107.662 11.771 107.662 11.7698 107.662 11.7686C107.662 11.7674 107.662 11.7662 107.662 11.765C107.662 11.7638 107.662 11.7626 107.662 11.7614C107.662 11.7602 107.662 11.759 107.662 11.7578C107.662 11.7566 107.662 11.7554 107.662 11.7543C107.662 11.7531 107.662 11.7519 107.662 11.7507C107.662 11.7495 107.662 11.7483 107.662 11.7471C107.662 11.7459 107.662 11.7447 107.662 11.7435C107.662 11.7423 107.662 11.7411 107.662 11.7399C107.662 11.7387 107.662 11.7375 107.662 11.7364C107.662 11.7352 107.662 11.734 107.662 11.7328C107.662 11.7316 107.662 11.7304 107.662 11.7292C107.662 11.728 107.662 11.7268 107.662 11.7256C107.662 11.7244 107.662 11.7232 107.662 11.722C107.662 11.7208 107.662 11.7196 107.662 11.7184C107.662 11.7173 107.662 11.7161 107.662 11.7149C107.662 11.7137 107.662 11.7125 107.662 11.7113C107.662 11.7101 107.662 11.7089 107.662 11.7077C107.662 11.7065 107.662 11.7053 107.662 11.7041C107.662 11.7029 107.662 11.7017 107.662 11.7005C107.662 11.6994 107.662 11.6982 107.662 11.697C107.662 11.6958 107.662 11.6946 107.662 11.6934C107.662 11.6922 107.662 11.691 107.662 11.6898C107.662 11.6886 107.662 11.6874 107.662 11.6862C107.662 11.685 107.662 11.6838 107.662 11.6826C107.662 11.6814 107.662 11.6803 107.662 11.6791C107.662 11.6779 107.662 11.6767 107.662 11.6755C107.662 11.6743 107.662 11.6731 107.662 11.6719C107.662 11.6707 107.662 11.6695 107.662 11.6683C107.662 11.6671 107.662 11.6659 107.662 11.6647C107.662 11.6635 107.662 11.6624 107.662 11.6612C107.662 11.66 107.662 11.6588 107.662 11.6576C107.662 11.6564 107.662 11.6552 107.662 11.654C107.662 11.6528 107.662 11.6516 107.662 11.6504C107.662 11.6492 107.662 11.648 107.662 11.6468C107.662 11.6456 107.662 11.6444 107.662 11.6433C107.662 11.6421 107.662 11.6409 107.662 11.6397C107.662 11.6385 107.662 11.6373 107.662 11.6361C107.662 11.6349 107.662 11.6337 107.662 11.6325C107.662 11.6313 107.662 11.6301 107.662 11.6289C107.662 11.6277 107.662 11.6265 107.662 11.6254C107.662 11.6242 107.662 11.623 107.662 11.6218C107.662 11.6206 107.662 11.6194 107.662 11.6182C107.662 11.617 107.662 11.6158 107.662 11.6146C107.662 11.6134 107.662 11.6122 107.662 11.611C107.662 11.6098 107.662 11.6086 107.662 11.6074C107.662 11.6063 107.662 11.6051 107.662 11.6039C107.662 11.6027 107.662 11.6015 107.662 11.6003C107.662 11.5991 107.662 11.5979 107.662 11.5967C107.662 11.5955 107.662 11.5943 107.662 11.5931C107.662 11.5919 107.662 11.5907 107.662 11.5895C107.662 11.5884 107.662 11.5872 107.662 11.586C107.662 11.5848 107.662 11.5836 107.662 11.5824C107.662 11.5812 107.662 11.58 107.662 11.5788C107.662 11.5776 107.662 11.5764 107.662 11.5752C107.662 11.574 107.662 11.5728 107.662 11.5716C107.662 11.5704 107.662 11.5693 107.662 11.5681C107.662 11.5669 107.662 11.5657 107.662 11.5645C107.662 11.5633 107.662 11.5621 107.662 11.5609C107.662 11.5597 107.662 11.5585 107.662 11.5573C107.662 11.5561 107.662 11.5549 107.662 11.5537C107.662 11.5525 107.662 11.5514 107.662 11.5502C107.662 11.549 107.662 11.5478 107.662 11.5466C107.662 11.5454 107.662 11.5442 107.662 11.543C107.662 11.5418 107.662 11.5406 107.662 11.5394C107.662 11.5382 107.662 11.537 107.662 11.5358C107.662 11.5346 107.662 11.5334 107.662 11.5323C107.662 11.5311 107.662 11.5299 107.662 11.5287C107.662 11.5275 107.662 11.5263 107.662 11.5251C107.662 11.5239 107.662 11.5227 107.662 11.5215C107.662 11.5203 107.662 11.5191 107.662 11.5179C107.662 11.5167 107.662 11.5155 107.662 11.5144C107.662 11.5132 107.662 11.512 107.662 11.5108C107.662 11.5096 107.662 11.5084 107.662 11.5072C107.662 11.506 107.662 11.5048 107.662 11.5036C107.662 11.5024 107.662 11.5012 107.662 11.5C107.662 11.4988 107.662 11.4976 107.662 11.4964C107.662 11.4953 107.662 11.4941 107.662 11.4929C107.662 11.4917 107.662 11.4905 107.662 11.4893C107.662 11.4881 107.662 11.4869 107.662 11.4857C107.662 11.4845 107.662 11.4833 107.662 11.4821C107.662 11.4809 107.662 11.4797 107.662 11.4785C107.662 11.4774 107.662 11.4762 107.662 11.475C107.662 11.4738 107.662 11.4726 107.662 11.4714C107.662 11.4702 107.662 11.469 107.662 11.4678C107.662 11.4666 107.662 11.4654 107.662 11.4642C107.662 11.463 107.662 11.4618 107.662 11.4606C107.662 11.4594 107.662 11.4583 107.662 11.4571C107.662 11.4559 107.662 11.4547 107.662 11.4535C107.662 11.4523 107.662 11.4511 107.662 11.4499C107.662 11.4487 107.662 11.4475 107.662 11.4463C107.662 11.4451 107.662 11.4439 107.662 11.4427C107.662 11.4415 107.662 11.4404 107.662 11.4392C107.662 11.438 107.662 11.4368 107.662 11.4356C107.662 11.4344 107.662 11.4332 107.662 11.432C107.662 11.4308 107.662 11.4296 107.662 11.4284C107.662 11.4272 107.662 11.426 107.662 11.4248C107.662 11.4236 107.662 11.4224 107.662 11.4213C107.662 11.4201 107.662 11.4189 107.662 11.4177C107.662 11.4165 107.662 11.4153 107.662 11.4141C107.662 11.4129 107.662 11.4117 107.662 11.4105C107.662 11.4093 107.662 11.4081 107.662 11.4069C107.662 11.4057 107.662 11.4045 107.662 11.4034C107.662 11.4022 107.662 11.401 107.662 11.3998C107.662 11.3986 107.662 11.3974 107.662 11.3962C107.662 11.395 107.662 11.3938 107.662 11.3926C107.662 11.3914 107.662 11.3902 107.662 11.389C107.662 11.3878 107.662 11.3866 107.662 11.3854C107.662 11.3843 107.662 11.3831 107.662 11.3819C107.662 11.3807 107.662 11.3795 107.662 11.3783C107.662 11.3771 107.662 11.3759 107.662 11.3747C107.662 11.3735 107.662 11.3723 107.662 11.3711C107.662 11.3699 107.662 11.3687 107.662 11.3675C107.662 11.3664 107.662 11.3652 107.662 11.364C107.662 11.3628 107.662 11.3616 107.662 11.3604C107.662 11.3592 107.662 11.358 107.662 11.3568C107.662 11.3556 107.662 11.3544 107.662 11.3532C107.662 11.352 107.662 11.3508 107.662 11.3496C107.662 11.3485 107.662 11.3473 107.662 11.3461C107.662 11.3449 107.662 11.3437 107.662 11.3425C107.662 11.3413 107.662 11.3401 107.662 11.3389C107.662 11.3377 107.662 11.3365 107.662 11.3353C107.662 11.3341 107.662 11.3329 107.662 11.3317C107.662 11.3305 107.662 11.3294 107.662 11.3282C107.662 11.327 107.662 11.3258 107.662 11.3246C107.662 11.3234 107.662 11.3222 107.662 11.321C107.662 11.3198 107.662 11.3186 107.662 11.3174C107.662 11.3162 107.662 11.315 107.662 11.3138C107.662 11.3126 107.662 11.3115 107.662 11.3103C107.662 11.3091 107.662 11.3079 107.662 11.3067C107.662 11.3055 107.662 11.3043 107.662 11.3031C107.662 11.3019 107.662 11.3007 107.662 11.2995C107.662 11.2983 107.662 11.2971 107.662 11.2959C107.662 11.2947 107.662 11.2935 107.662 11.2924C107.662 11.2912 107.662 11.29 107.662 11.2888C107.662 11.2876 107.662 11.2864 107.662 11.2852C107.662 11.284 107.662 11.2828 107.662 11.2816C107.662 11.2804 107.662 11.2792 107.662 11.278C107.662 11.2768 107.662 11.2756 107.662 11.2745C107.662 11.2733 107.662 11.2721 107.662 11.2709C107.662 11.2697 107.662 11.2685 107.662 11.2673C107.662 11.2661 107.662 11.2649 107.662 11.2637C107.662 11.2625 107.662 11.2613 107.662 11.2601C107.662 11.2589 107.662 11.2577 107.662 11.2565C107.662 11.2554 107.662 11.2542 107.662 11.253C107.662 11.2518 107.662 11.2506 107.662 11.2494C107.662 11.2482 107.662 11.247 107.662 11.2458C107.662 11.2446 107.662 11.2434 107.662 11.2422C107.662 11.241 107.662 11.2398 107.662 11.2386C107.662 11.2375 107.662 11.2363 107.662 11.2351C107.662 11.2339 107.662 11.2327 107.662 11.2315C107.662 11.2303 107.662 11.2291 107.662 11.2279C107.662 11.2267 107.662 11.2255 107.662 11.2243C107.662 11.2231 107.662 11.2219 107.662 11.2207C107.662 11.2195 107.662 11.2184 107.662 11.2172C107.662 11.216 107.662 11.2148 107.662 11.2136C107.662 11.2124 107.662 11.2112 107.662 11.21C107.662 11.2088 107.662 11.2076 107.662 11.2064C107.662 11.2052 107.662 11.204 107.662 11.2028C107.662 11.2016 107.662 11.2005 107.662 11.1993C107.662 11.1981 107.662 11.1969 107.662 11.1957C107.662 11.1945 107.662 11.1933 107.662 11.1921C107.662 11.1909 107.662 11.1897 107.662 11.1885C107.662 11.1873 107.662 11.1861 107.662 11.1849C107.662 11.1837 107.662 11.1825 107.662 11.1814C107.662 11.1802 107.662 11.179 107.662 11.1778C107.662 11.1766 107.662 11.1754 107.662 11.1742C107.662 11.173 107.662 11.1718 107.662 11.1706C107.662 11.1694 107.662 11.1682 107.662 11.167C107.662 11.1658 107.662 11.1646 107.662 11.1635C107.662 11.1623 107.662 11.1611 107.662 11.1599C107.662 11.1587 107.662 11.1575 107.662 11.1563C107.662 11.1551 107.662 11.1539 107.662 11.1527C107.662 11.1515 107.662 11.1503 107.662 11.1491C107.662 11.1479 107.662 11.1467 107.662 11.1455C107.662 11.1444 107.662 11.1432 107.662 11.142C107.662 11.1408 107.662 11.1396 107.662 11.1384C107.662 11.1372 107.662 11.136 107.662 11.1348C107.662 11.1336 107.662 11.1324 107.662 11.1312C107.662 11.13 107.662 11.1288 107.662 11.1276C107.662 11.1265 107.662 11.1253 107.662 11.1241C107.662 11.1229 107.662 11.1217 107.662 11.1205C107.662 11.1193 107.662 11.1181 107.662 11.1169C107.662 11.1157 107.662 11.1145 107.662 11.1133C107.662 11.1121 107.662 11.1109 107.662 11.1097C107.662 11.1085 107.662 11.1074 107.662 11.1062C107.662 11.105 107.662 11.1038 107.662 11.1026C107.662 11.1014 107.662 11.1002 107.662 11.099C107.662 11.0978 107.662 11.0966 107.662 11.0954C107.662 11.0942 107.662 11.093 107.662 11.0918C107.662 11.0906 107.662 11.0895 107.662 11.0883C107.662 11.0871 107.662 11.0859 107.662 11.0847C107.662 11.0835 107.662 11.0823 107.662 11.0811C107.662 11.0799 107.662 11.0787 107.662 11.0775C107.662 11.0763 107.662 11.0751 107.662 11.0739C107.662 11.0727 107.662 11.0715 107.662 11.0704C107.662 11.0692 107.662 11.068 107.662 11.0668C107.662 11.0656 107.662 11.0644 107.662 11.0632C107.662 11.062 107.662 11.0608 107.662 11.0596C107.662 11.0584 107.662 11.0572 107.662 11.056C107.662 11.0548 107.662 11.0536 107.662 11.0525C107.662 11.0513 107.662 11.0501 107.662 11.0489C107.662 11.0477 107.662 11.0465 107.662 11.0453C107.662 11.0441 107.662 11.0429 107.662 11.0417C107.662 11.0405 107.662 11.0393 107.662 11.0381C107.662 11.0369 107.662 11.0357 107.662 11.0345C107.662 11.0334 107.662 11.0322 107.662 11.031C107.662 11.0298 107.662 11.0286 107.662 11.0274C107.662 11.0262 107.662 11.025 107.662 11.0238C107.662 11.0226 107.662 11.0214 107.662 11.0202C107.662 11.019 107.662 11.0178 107.662 11.0166C107.662 11.0155 107.662 11.0143 107.662 11.0131C107.662 11.0119 107.662 11.0107 107.662 11.0095C107.662 11.0083 107.662 11.0071 107.662 11.0059C107.662 11.0047 107.662 11.0035 107.662 11.0023C107.662 11.0011 107.662 10.9999 107.662 10.9987C107.662 10.9975 107.662 10.9964 107.662 10.9952C107.662 10.994 107.662 10.9928 107.662 10.9916C107.662 10.9904 107.662 10.9892 107.662 10.988C107.662 10.9868 107.662 10.9856 107.662 10.9844C107.662 10.9832 107.662 10.982 107.662 10.9808C107.662 10.9796 107.662 10.9785 107.662 10.9773C107.662 10.9761 107.662 10.9749 107.662 10.9737C107.662 10.9725 107.662 10.9713 107.662 10.9701C107.662 10.9689 107.662 10.9677 107.662 10.9665C107.662 10.9653 107.662 10.9641 107.662 10.9629C107.662 10.9617 107.662 10.9605 107.662 10.9594C107.662 10.9582 107.662 10.957 107.662 10.9558C107.662 10.9546 107.662 10.9534 107.662 10.9522C107.662 10.951 107.662 10.9498 107.662 10.9486C107.662 10.9474 107.662 10.9462 107.662 10.945C107.662 10.9438 107.662 10.9426 107.662 10.9415C107.662 10.9403 107.662 10.9391 107.662 10.9379C107.662 10.9367 107.662 10.9355 107.662 10.9343C107.662 10.9331 107.662 10.9319 107.662 10.9307C107.662 10.9295 107.662 10.9283 107.662 10.9271C107.662 10.9259 107.662 10.9247 107.662 10.9236C107.662 10.9224 107.662 10.9212 107.662 10.92C107.662 10.9188 107.662 10.9176 107.662 10.9164C107.662 10.9152 107.662 10.914 107.662 10.9128C107.662 10.9116 107.662 10.9104 107.662 10.9092C107.662 10.908 107.662 10.9068 107.662 10.9056C107.662 10.9045 107.662 10.9033 107.662 10.9021C107.662 10.9009 107.662 10.8997 107.662 10.8985C107.662 10.8973 107.662 10.8961 107.662 10.8949C107.662 10.8937 107.662 10.8925 107.662 10.8913C107.662 10.8901 107.662 10.8889 107.662 10.8877C107.662 10.8866 107.662 10.8854 107.662 10.8842C107.662 10.883 107.662 10.8818 107.662 10.8806C107.662 10.8794 107.662 10.8782 107.662 10.877C107.662 10.8758 107.662 10.8746 107.662 10.8734C107.662 10.8722 107.662 10.871 107.662 10.8698C107.662 10.8686 107.662 10.8675 107.662 10.8663C107.662 10.8651 107.662 10.8639 107.662 10.8627C107.662 10.8615 107.662 10.8603 107.662 10.8591C107.662 10.8579 107.662 10.8567 107.662 10.8555C107.662 10.8543 107.662 10.8531 107.662 10.8519C107.662 10.8507 107.662 10.8496 107.662 10.8484C107.662 10.8472 107.662 10.846 107.662 10.8448C107.662 10.8436 107.662 10.8424 107.662 10.8412C107.662 10.84 107.662 10.8388 107.662 10.8376C107.662 10.8364 107.662 10.8352 107.662 10.834C107.662 10.8328 107.662 10.8316 107.662 10.8305C107.662 10.8293 107.662 10.8281 107.662 10.8269C107.662 10.8257 107.662 10.8245 107.662 10.8233C107.662 10.8221 107.662 10.8209 107.662 10.8197C107.662 10.8185 107.662 10.8173 107.662 10.8161C107.662 10.8149 107.662 10.8137 107.662 10.8126C107.662 10.8114 107.662 10.8102 107.662 10.809C107.662 10.8078 107.662 10.8066 107.662 10.8054C107.662 10.8042 107.662 10.803 107.662 10.8018C107.662 10.8006 107.662 10.7994 107.662 10.7982C107.662 10.797 107.662 10.7958 107.662 10.7946C107.662 10.7935 107.662 10.7923 107.662 10.7911C107.662 10.7899 107.662 10.7887 107.662 10.7875C107.662 10.7863 107.662 10.7851 107.662 10.7839H106.662C106.662 10.7851 106.662 10.7863 106.662 10.7875C106.662 10.7887 106.662 10.7899 106.662 10.7911C106.662 10.7923 106.662 10.7935 106.662 10.7946C106.662 10.7958 106.662 10.797 106.662 10.7982C106.662 10.7994 106.662 10.8006 106.662 10.8018C106.662 10.803 106.662 10.8042 106.662 10.8054C106.662 10.8066 106.662 10.8078 106.662 10.809C106.662 10.8102 106.662 10.8114 106.662 10.8126C106.662 10.8137 106.662 10.8149 106.662 10.8161C106.662 10.8173 106.662 10.8185 106.662 10.8197C106.662 10.8209 106.662 10.8221 106.662 10.8233C106.662 10.8245 106.662 10.8257 106.662 10.8269C106.662 10.8281 106.662 10.8293 106.662 10.8305C106.662 10.8316 106.662 10.8328 106.662 10.834C106.662 10.8352 106.662 10.8364 106.662 10.8376C106.662 10.8388 106.662 10.84 106.662 10.8412C106.662 10.8424 106.662 10.8436 106.662 10.8448C106.662 10.846 106.662 10.8472 106.662 10.8484C106.662 10.8496 106.662 10.8507 106.662 10.8519C106.662 10.8531 106.662 10.8543 106.662 10.8555C106.662 10.8567 106.662 10.8579 106.662 10.8591C106.662 10.8603 106.662 10.8615 106.662 10.8627C106.662 10.8639 106.662 10.8651 106.662 10.8663C106.662 10.8675 106.662 10.8686 106.662 10.8698C106.662 10.871 106.662 10.8722 106.662 10.8734C106.662 10.8746 106.662 10.8758 106.662 10.877C106.662 10.8782 106.662 10.8794 106.662 10.8806C106.662 10.8818 106.662 10.883 106.662 10.8842C106.662 10.8854 106.662 10.8866 106.662 10.8877C106.662 10.8889 106.662 10.8901 106.662 10.8913C106.662 10.8925 106.662 10.8937 106.662 10.8949C106.662 10.8961 106.662 10.8973 106.662 10.8985C106.662 10.8997 106.662 10.9009 106.662 10.9021C106.662 10.9033 106.662 10.9045 106.662 10.9056C106.662 10.9068 106.662 10.908 106.662 10.9092C106.662 10.9104 106.662 10.9116 106.662 10.9128C106.662 10.914 106.662 10.9152 106.662 10.9164C106.662 10.9176 106.662 10.9188 106.662 10.92C106.662 10.9212 106.662 10.9224 106.662 10.9236C106.662 10.9247 106.662 10.9259 106.662 10.9271C106.662 10.9283 106.662 10.9295 106.662 10.9307C106.662 10.9319 106.662 10.9331 106.662 10.9343C106.662 10.9355 106.662 10.9367 106.662 10.9379C106.662 10.9391 106.662 10.9403 106.662 10.9415C106.662 10.9426 106.662 10.9438 106.662 10.945C106.662 10.9462 106.662 10.9474 106.662 10.9486C106.662 10.9498 106.662 10.951 106.662 10.9522C106.662 10.9534 106.662 10.9546 106.662 10.9558C106.662 10.957 106.662 10.9582 106.662 10.9594C106.662 10.9605 106.662 10.9617 106.662 10.9629C106.662 10.9641 106.662 10.9653 106.662 10.9665C106.662 10.9677 106.662 10.9689 106.662 10.9701C106.662 10.9713 106.662 10.9725 106.662 10.9737C106.662 10.9749 106.662 10.9761 106.662 10.9773C106.662 10.9785 106.662 10.9796 106.662 10.9808C106.662 10.982 106.662 10.9832 106.662 10.9844C106.662 10.9856 106.662 10.9868 106.662 10.988C106.662 10.9892 106.662 10.9904 106.662 10.9916C106.662 10.9928 106.662 10.994 106.662 10.9952C106.662 10.9964 106.662 10.9975 106.662 10.9987C106.662 10.9999 106.662 11.0011 106.662 11.0023C106.662 11.0035 106.662 11.0047 106.662 11.0059C106.662 11.0071 106.662 11.0083 106.662 11.0095C106.662 11.0107 106.662 11.0119 106.662 11.0131C106.662 11.0143 106.662 11.0155 106.662 11.0166C106.662 11.0178 106.662 11.019 106.662 11.0202C106.662 11.0214 106.662 11.0226 106.662 11.0238C106.662 11.025 106.662 11.0262 106.662 11.0274C106.662 11.0286 106.662 11.0298 106.662 11.031C106.662 11.0322 106.662 11.0334 106.662 11.0345C106.662 11.0357 106.662 11.0369 106.662 11.0381C106.662 11.0393 106.662 11.0405 106.662 11.0417C106.662 11.0429 106.662 11.0441 106.662 11.0453C106.662 11.0465 106.662 11.0477 106.662 11.0489C106.662 11.0501 106.662 11.0513 106.662 11.0525C106.662 11.0536 106.662 11.0548 106.662 11.056C106.662 11.0572 106.662 11.0584 106.662 11.0596C106.662 11.0608 106.662 11.062 106.662 11.0632C106.662 11.0644 106.662 11.0656 106.662 11.0668C106.662 11.068 106.662 11.0692 106.662 11.0704C106.662 11.0715 106.662 11.0727 106.662 11.0739C106.662 11.0751 106.662 11.0763 106.662 11.0775C106.662 11.0787 106.662 11.0799 106.662 11.0811C106.662 11.0823 106.662 11.0835 106.662 11.0847C106.662 11.0859 106.662 11.0871 106.662 11.0883C106.662 11.0895 106.662 11.0906 106.662 11.0918C106.662 11.093 106.662 11.0942 106.662 11.0954C106.662 11.0966 106.662 11.0978 106.662 11.099C106.662 11.1002 106.662 11.1014 106.662 11.1026C106.662 11.1038 106.662 11.105 106.662 11.1062C106.662 11.1074 106.662 11.1085 106.662 11.1097C106.662 11.1109 106.662 11.1121 106.662 11.1133C106.662 11.1145 106.662 11.1157 106.662 11.1169C106.662 11.1181 106.662 11.1193 106.662 11.1205C106.662 11.1217 106.662 11.1229 106.662 11.1241C106.662 11.1253 106.662 11.1265 106.662 11.1276C106.662 11.1288 106.662 11.13 106.662 11.1312C106.662 11.1324 106.662 11.1336 106.662 11.1348C106.662 11.136 106.662 11.1372 106.662 11.1384C106.662 11.1396 106.662 11.1408 106.662 11.142C106.662 11.1432 106.662 11.1444 106.662 11.1455C106.662 11.1467 106.662 11.1479 106.662 11.1491C106.662 11.1503 106.662 11.1515 106.662 11.1527C106.662 11.1539 106.662 11.1551 106.662 11.1563C106.662 11.1575 106.662 11.1587 106.662 11.1599C106.662 11.1611 106.662 11.1623 106.662 11.1635C106.662 11.1646 106.662 11.1658 106.662 11.167C106.662 11.1682 106.662 11.1694 106.662 11.1706C106.662 11.1718 106.662 11.173 106.662 11.1742C106.662 11.1754 106.662 11.1766 106.662 11.1778C106.662 11.179 106.662 11.1802 106.662 11.1814C106.662 11.1825 106.662 11.1837 106.662 11.1849C106.662 11.1861 106.662 11.1873 106.662 11.1885C106.662 11.1897 106.662 11.1909 106.662 11.1921C106.662 11.1933 106.662 11.1945 106.662 11.1957C106.662 11.1969 106.662 11.1981 106.662 11.1993C106.662 11.2005 106.662 11.2016 106.662 11.2028C106.662 11.204 106.662 11.2052 106.662 11.2064C106.662 11.2076 106.662 11.2088 106.662 11.21C106.662 11.2112 106.662 11.2124 106.662 11.2136C106.662 11.2148 106.662 11.216 106.662 11.2172C106.662 11.2184 106.662 11.2195 106.662 11.2207C106.662 11.2219 106.662 11.2231 106.662 11.2243C106.662 11.2255 106.662 11.2267 106.662 11.2279C106.662 11.2291 106.662 11.2303 106.662 11.2315C106.662 11.2327 106.662 11.2339 106.662 11.2351C106.662 11.2363 106.662 11.2375 106.662 11.2386C106.662 11.2398 106.662 11.241 106.662 11.2422C106.662 11.2434 106.662 11.2446 106.662 11.2458C106.662 11.247 106.662 11.2482 106.662 11.2494C106.662 11.2506 106.662 11.2518 106.662 11.253C106.662 11.2542 106.662 11.2554 106.662 11.2565C106.662 11.2577 106.662 11.2589 106.662 11.2601C106.662 11.2613 106.662 11.2625 106.662 11.2637C106.662 11.2649 106.662 11.2661 106.662 11.2673C106.662 11.2685 106.662 11.2697 106.662 11.2709C106.662 11.2721 106.662 11.2733 106.662 11.2745C106.662 11.2756 106.662 11.2768 106.662 11.278C106.662 11.2792 106.662 11.2804 106.662 11.2816C106.662 11.2828 106.662 11.284 106.662 11.2852C106.662 11.2864 106.662 11.2876 106.662 11.2888C106.662 11.29 106.662 11.2912 106.662 11.2924C106.662 11.2935 106.662 11.2947 106.662 11.2959C106.662 11.2971 106.662 11.2983 106.662 11.2995C106.662 11.3007 106.662 11.3019 106.662 11.3031C106.662 11.3043 106.662 11.3055 106.662 11.3067C106.662 11.3079 106.662 11.3091 106.662 11.3103C106.662 11.3115 106.662 11.3126 106.662 11.3138C106.662 11.315 106.662 11.3162 106.662 11.3174C106.662 11.3186 106.662 11.3198 106.662 11.321C106.662 11.3222 106.662 11.3234 106.662 11.3246C106.662 11.3258 106.662 11.327 106.662 11.3282C106.662 11.3294 106.662 11.3305 106.662 11.3317C106.662 11.3329 106.662 11.3341 106.662 11.3353C106.662 11.3365 106.662 11.3377 106.662 11.3389C106.662 11.3401 106.662 11.3413 106.662 11.3425C106.662 11.3437 106.662 11.3449 106.662 11.3461C106.662 11.3473 106.662 11.3485 106.662 11.3496C106.662 11.3508 106.662 11.352 106.662 11.3532C106.662 11.3544 106.662 11.3556 106.662 11.3568C106.662 11.358 106.662 11.3592 106.662 11.3604C106.662 11.3616 106.662 11.3628 106.662 11.364C106.662 11.3652 106.662 11.3664 106.662 11.3675C106.662 11.3687 106.662 11.3699 106.662 11.3711C106.662 11.3723 106.662 11.3735 106.662 11.3747C106.662 11.3759 106.662 11.3771 106.662 11.3783C106.662 11.3795 106.662 11.3807 106.662 11.3819C106.662 11.3831 106.662 11.3843 106.662 11.3854C106.662 11.3866 106.662 11.3878 106.662 11.389C106.662 11.3902 106.662 11.3914 106.662 11.3926C106.662 11.3938 106.662 11.395 106.662 11.3962C106.662 11.3974 106.662 11.3986 106.662 11.3998C106.662 11.401 106.662 11.4022 106.662 11.4034C106.662 11.4045 106.662 11.4057 106.662 11.4069C106.662 11.4081 106.662 11.4093 106.662 11.4105C106.662 11.4117 106.662 11.4129 106.662 11.4141C106.662 11.4153 106.662 11.4165 106.662 11.4177C106.662 11.4189 106.662 11.4201 106.662 11.4213C106.662 11.4224 106.662 11.4236 106.662 11.4248C106.662 11.426 106.662 11.4272 106.662 11.4284C106.662 11.4296 106.662 11.4308 106.662 11.432C106.662 11.4332 106.662 11.4344 106.662 11.4356C106.662 11.4368 106.662 11.438 106.662 11.4392C106.662 11.4404 106.662 11.4415 106.662 11.4427C106.662 11.4439 106.662 11.4451 106.662 11.4463C106.662 11.4475 106.662 11.4487 106.662 11.4499C106.662 11.4511 106.662 11.4523 106.662 11.4535C106.662 11.4547 106.662 11.4559 106.662 11.4571C106.662 11.4583 106.662 11.4594 106.662 11.4606C106.662 11.4618 106.662 11.463 106.662 11.4642C106.662 11.4654 106.662 11.4666 106.662 11.4678C106.662 11.469 106.662 11.4702 106.662 11.4714C106.662 11.4726 106.662 11.4738 106.662 11.475C106.662 11.4762 106.662 11.4774 106.662 11.4785C106.662 11.4797 106.662 11.4809 106.662 11.4821C106.662 11.4833 106.662 11.4845 106.662 11.4857C106.662 11.4869 106.662 11.4881 106.662 11.4893C106.662 11.4905 106.662 11.4917 106.662 11.4929C106.662 11.4941 106.662 11.4953 106.662 11.4964C106.662 11.4976 106.662 11.4988 106.662 11.5C106.662 11.5012 106.662 11.5024 106.662 11.5036C106.662 11.5048 106.662 11.506 106.662 11.5072C106.662 11.5084 106.662 11.5096 106.662 11.5108C106.662 11.512 106.662 11.5132 106.662 11.5144C106.662 11.5155 106.662 11.5167 106.662 11.5179C106.662 11.5191 106.662 11.5203 106.662 11.5215C106.662 11.5227 106.662 11.5239 106.662 11.5251C106.662 11.5263 106.662 11.5275 106.662 11.5287C106.662 11.5299 106.662 11.5311 106.662 11.5323C106.662 11.5334 106.662 11.5346 106.662 11.5358C106.662 11.537 106.662 11.5382 106.662 11.5394C106.662 11.5406 106.662 11.5418 106.662 11.543C106.662 11.5442 106.662 11.5454 106.662 11.5466C106.662 11.5478 106.662 11.549 106.662 11.5502C106.662 11.5514 106.662 11.5525 106.662 11.5537C106.662 11.5549 106.662 11.5561 106.662 11.5573C106.662 11.5585 106.662 11.5597 106.662 11.5609C106.662 11.5621 106.662 11.5633 106.662 11.5645C106.662 11.5657 106.662 11.5669 106.662 11.5681C106.662 11.5693 106.662 11.5704 106.662 11.5716C106.662 11.5728 106.662 11.574 106.662 11.5752C106.662 11.5764 106.662 11.5776 106.662 11.5788C106.662 11.58 106.662 11.5812 106.662 11.5824C106.662 11.5836 106.662 11.5848 106.662 11.586C106.662 11.5872 106.662 11.5884 106.662 11.5895C106.662 11.5907 106.662 11.5919 106.662 11.5931C106.662 11.5943 106.662 11.5955 106.662 11.5967C106.662 11.5979 106.662 11.5991 106.662 11.6003C106.662 11.6015 106.662 11.6027 106.662 11.6039C106.662 11.6051 106.662 11.6063 106.662 11.6074C106.662 11.6086 106.662 11.6098 106.662 11.611C106.662 11.6122 106.662 11.6134 106.662 11.6146C106.662 11.6158 106.662 11.617 106.662 11.6182C106.662 11.6194 106.662 11.6206 106.662 11.6218C106.662 11.623 106.662 11.6242 106.662 11.6254C106.662 11.6265 106.662 11.6277 106.662 11.6289C106.662 11.6301 106.662 11.6313 106.662 11.6325C106.662 11.6337 106.662 11.6349 106.662 11.6361C106.662 11.6373 106.662 11.6385 106.662 11.6397C106.662 11.6409 106.662 11.6421 106.662 11.6433C106.662 11.6444 106.662 11.6456 106.662 11.6468C106.662 11.648 106.662 11.6492 106.662 11.6504C106.662 11.6516 106.662 11.6528 106.662 11.654C106.662 11.6552 106.662 11.6564 106.662 11.6576C106.662 11.6588 106.662 11.66 106.662 11.6612C106.662 11.6624 106.662 11.6635 106.662 11.6647C106.662 11.6659 106.662 11.6671 106.662 11.6683C106.662 11.6695 106.662 11.6707 106.662 11.6719C106.662 11.6731 106.662 11.6743 106.662 11.6755C106.662 11.6767 106.662 11.6779 106.662 11.6791C106.662 11.6803 106.662 11.6814 106.662 11.6826C106.662 11.6838 106.662 11.685 106.662 11.6862C106.662 11.6874 106.662 11.6886 106.662 11.6898C106.662 11.691 106.662 11.6922 106.662 11.6934C106.662 11.6946 106.662 11.6958 106.662 11.697C106.662 11.6982 106.662 11.6994 106.662 11.7005C106.662 11.7017 106.662 11.7029 106.662 11.7041C106.662 11.7053 106.662 11.7065 106.662 11.7077C106.662 11.7089 106.662 11.7101 106.662 11.7113C106.662 11.7125 106.662 11.7137 106.662 11.7149C106.662 11.7161 106.662 11.7173 106.662 11.7184C106.662 11.7196 106.662 11.7208 106.662 11.722C106.662 11.7232 106.662 11.7244 106.662 11.7256C106.662 11.7268 106.662 11.728 106.662 11.7292C106.662 11.7304 106.662 11.7316 106.662 11.7328C106.662 11.734 106.662 11.7352 106.662 11.7364C106.662 11.7375 106.662 11.7387 106.662 11.7399C106.662 11.7411 106.662 11.7423 106.662 11.7435C106.662 11.7447 106.662 11.7459 106.662 11.7471C106.662 11.7483 106.662 11.7495 106.662 11.7507C106.662 11.7519 106.662 11.7531 106.662 11.7543C106.662 11.7554 106.662 11.7566 106.662 11.7578C106.662 11.759 106.662 11.7602 106.662 11.7614C106.662 11.7626 106.662 11.7638 106.662 11.765C106.662 11.7662 106.662 11.7674 106.662 11.7686C106.662 11.7698 106.662 11.771 106.662 11.7722C106.662 11.7734 106.662 11.7745 106.662 11.7757C106.662 11.7769 106.662 11.7781 106.662 11.7793C106.662 11.7805 106.662 11.7817 106.662 11.7829C106.662 11.7841 106.662 11.7853 106.662 11.7865C106.662 11.7877 106.662 11.7889 106.662 11.7901C106.662 11.7913 106.662 11.7924 106.662 11.7936C106.662 11.7948 106.662 11.796 106.662 11.7972C106.662 11.7984 106.662 11.7996 106.662 11.8008C106.662 11.802 106.662 11.8032 106.662 11.8044C106.662 11.8056 106.662 11.8068 106.662 11.808C106.662 11.8092 106.662 11.8103 106.662 11.8115C106.662 11.8127 106.662 11.8139 106.662 11.8151C106.662 11.8163 106.662 11.8175 106.662 11.8187C106.662 11.8199 106.662 11.8211 106.662 11.8223C106.662 11.8235 106.662 11.8247 106.662 11.8259C106.662 11.8271 106.662 11.8283 106.662 11.8294C106.662 11.8306 106.662 11.8318 106.662 11.833C106.662 11.8342 106.662 11.8354 106.662 11.8366C106.662 11.8378 106.662 11.839 106.662 11.8402C106.662 11.8414 106.662 11.8426 106.662 11.8438C106.662 11.845 106.662 11.8462 106.662 11.8473C106.662 11.8485 106.662 11.8497 106.662 11.8509C106.662 11.8521 106.662 11.8533 106.662 11.8545C106.662 11.8557 106.662 11.8569 106.662 11.8581C106.662 11.8593 106.662 11.8605 106.662 11.8617C106.662 11.8629 106.662 11.8641 106.662 11.8653C106.662 11.8664 106.662 11.8676 106.662 11.8688C106.662 11.87 106.662 11.8712 106.662 11.8724C106.662 11.8736 106.662 11.8748 106.662 11.876C106.662 11.8772 106.662 11.8784 106.662 11.8796C106.662 11.8808 106.662 11.882 106.662 11.8832C106.662 11.8843 106.662 11.8855 106.662 11.8867C106.662 11.8879 106.662 11.8891 106.662 11.8903C106.662 11.8915 106.662 11.8927 106.662 11.8939C106.662 11.8951 106.662 11.8963 106.662 11.8975C106.662 11.8987 106.662 11.8999 106.662 11.9011C106.662 11.9023 106.662 11.9034 106.662 11.9046C106.662 11.9058 106.662 11.907 106.662 11.9082C106.662 11.9094 106.662 11.9106 106.662 11.9118C106.662 11.913 106.662 11.9142 106.662 11.9154C106.662 11.9166 106.662 11.9178 106.662 11.919C106.662 11.9202 106.662 11.9213 106.662 11.9225C106.662 11.9237 106.662 11.9249 106.662 11.9261C106.662 11.9273 106.662 11.9285 106.662 11.9297C106.662 11.9309 106.662 11.9321 106.662 11.9333C106.662 11.9345 106.662 11.9357 106.662 11.9369C106.662 11.9381 106.662 11.9393 106.662 11.9404C106.662 11.9416 106.662 11.9428 106.662 11.944C106.662 11.9452 106.662 11.9464 106.662 11.9476C106.662 11.9488 106.662 11.95 106.662 11.9512C106.662 11.9524 106.662 11.9536 106.662 11.9548C106.662 11.956 106.662 11.9572 106.662 11.9583C106.662 11.9595 106.662 11.9607 106.662 11.9619C106.662 11.9631 106.662 11.9643 106.662 11.9655C106.662 11.9667 106.662 11.9679 106.662 11.9691C106.662 11.9703 106.662 11.9715 106.662 11.9727C106.662 11.9739 106.662 11.9751 106.662 11.9763C106.662 11.9774 106.662 11.9786 106.662 11.9798C106.662 11.981 106.662 11.9822 106.662 11.9834C106.662 11.9846 106.662 11.9858 106.662 11.987C106.662 11.9882 106.662 11.9894 106.662 11.9906C106.662 11.9918 106.662 11.993 106.662 11.9942C106.662 11.9953 106.662 11.9965 106.662 11.9977C106.662 11.9989 106.662 12.0001 106.662 12.0013C106.662 12.0025 106.662 12.0037 106.662 12.0049C106.662 12.0061 106.662 12.0073 106.662 12.0085C106.662 12.0097 106.662 12.0109 106.662 12.0121C106.662 12.0133 106.662 12.0144 106.662 12.0156C106.662 12.0168 106.662 12.018 106.662 12.0192C106.662 12.0204 106.662 12.0216 106.662 12.0228C106.662 12.024 106.662 12.0252 106.662 12.0264C106.662 12.0276 106.662 12.0288 106.662 12.03C106.662 12.0312 106.662 12.0323 106.662 12.0335C106.662 12.0347 106.662 12.0359 106.662 12.0371C106.662 12.0383 106.662 12.0395 106.662 12.0407C106.662 12.0419 106.662 12.0431 106.662 12.0443C106.662 12.0455 106.662 12.0467 106.662 12.0479C106.662 12.0491 106.662 12.0503 106.662 12.0514C106.662 12.0526 106.662 12.0538 106.662 12.055C106.662 12.0562 106.662 12.0574 106.662 12.0586C106.662 12.0598 106.662 12.061 106.662 12.0622C106.662 12.0634 106.662 12.0646 106.662 12.0658C106.662 12.067 106.662 12.0682 106.662 12.0693C106.662 12.0705 106.662 12.0717 106.662 12.0729C106.662 12.0741 106.662 12.0753 106.662 12.0765C106.662 12.0777 106.662 12.0789 106.662 12.0801C106.662 12.0813 106.662 12.0825 106.662 12.0837C106.662 12.0849 106.662 12.0861 106.662 12.0873C106.662 12.0884 106.662 12.0896 106.662 12.0908C106.662 12.092 106.662 12.0932 106.662 12.0944C106.662 12.0956 106.662 12.0968 106.662 12.098C106.662 12.0992 106.662 12.1004 106.662 12.1016C106.662 12.1028 106.662 12.104 106.662 12.1052C106.662 12.1063 106.662 12.1075 106.662 12.1087C106.662 12.1099 106.662 12.1111 106.662 12.1123C106.662 12.1135 106.662 12.1147 106.662 12.1159C106.662 12.1171 106.662 12.1183 106.662 12.1195C106.662 12.1207 106.662 12.1219 106.662 12.1231C106.662 12.1243 106.662 12.1254 106.662 12.1266C106.662 12.1278 106.662 12.129 106.662 12.1302C106.662 12.1314 106.662 12.1326 106.662 12.1338C106.662 12.135 106.662 12.1362 106.662 12.1374C106.662 12.1386 106.662 12.1398 106.662 12.141C106.662 12.1422 106.662 12.1433 106.662 12.1445C106.662 12.1457 106.662 12.1469 106.662 12.1481C106.662 12.1493 106.662 12.1505 106.662 12.1517C106.662 12.1529 106.662 12.1541 106.662 12.1553C106.662 12.1565 106.662 12.1577 106.662 12.1589C106.662 12.1601 106.662 12.1613 106.662 12.1624C106.662 12.1636 106.662 12.1648 106.662 12.166C106.662 12.1672 106.662 12.1684 106.662 12.1696C106.662 12.1708 106.662 12.172 106.662 12.1732C106.662 12.1744 106.662 12.1756 106.662 12.1768C106.662 12.178 106.662 12.1792 106.662 12.1803C106.662 12.1815 106.662 12.1827 106.662 12.1839C106.662 12.1851 106.662 12.1863 106.662 12.1875C106.662 12.1887 106.662 12.1899 106.662 12.1911C106.662 12.1923 106.662 12.1935 106.662 12.1947C106.662 12.1959 106.662 12.1971 106.662 12.1983C106.662 12.1994 106.662 12.2006 106.662 12.2018C106.662 12.203 106.662 12.2042 106.662 12.2054C106.662 12.2066 106.662 12.2078 106.662 12.209C106.662 12.2102 106.662 12.2114 106.662 12.2126C106.662 12.2138 106.662 12.215 106.662 12.2162C106.662 12.2173 106.662 12.2185 106.662 12.2197C106.662 12.2209 106.662 12.2221 106.662 12.2233C106.662 12.2245 106.662 12.2257 106.662 12.2269C106.662 12.2281 106.662 12.2293 106.662 12.2305C106.662 12.2317 106.662 12.2329 106.662 12.2341C106.662 12.2352 106.662 12.2364 106.662 12.2376C106.662 12.2388 106.662 12.24 106.662 12.2412C106.662 12.2424 106.662 12.2436 106.662 12.2448C106.662 12.246 106.662 12.2472 106.662 12.2484C106.662 12.2496 106.662 12.2508 106.662 12.252C106.662 12.2532 106.662 12.2543 106.662 12.2555C106.662 12.2567 106.662 12.2579 106.662 12.2591C106.662 12.2603 106.662 12.2615 106.662 12.2627C106.662 12.2639 106.662 12.2651 106.662 12.2663C106.662 12.2675 106.662 12.2687 106.662 12.2699C106.662 12.2711 106.662 12.2722 106.662 12.2734C106.662 12.2746 106.662 12.2758 106.662 12.277C106.662 12.2782 106.662 12.2794 106.662 12.2806C106.662 12.2818 106.662 12.283 106.662 12.2842C106.662 12.2854 106.662 12.2866 106.662 12.2878C106.662 12.289 106.662 12.2902 106.662 12.2913C106.662 12.2925 106.662 12.2937 106.662 12.2949C106.662 12.2961 106.662 12.2973 106.662 12.2985C106.662 12.2997 106.662 12.3009 106.662 12.3021C106.662 12.3033 106.662 12.3045 106.662 12.3057C106.662 12.3069 106.662 12.3081 106.662 12.3092C106.662 12.3104 106.662 12.3116 106.662 12.3128C106.662 12.314 106.662 12.3152 106.662 12.3164C106.662 12.3176 106.662 12.3188 106.662 12.32C106.662 12.3212 106.662 12.3224 106.662 12.3236C106.662 12.3248 106.662 12.326 106.662 12.3272C106.662 12.3283 106.662 12.3295 106.662 12.3307C106.662 12.3319 106.662 12.3331 106.662 12.3343C106.662 12.3355 106.662 12.3367 106.662 12.3379C106.662 12.3391 106.662 12.3403 106.662 12.3415C106.662 12.3427 106.662 12.3439 106.662 12.3451C106.662 12.3462 106.662 12.3474 106.662 12.3486C106.662 12.3498 106.662 12.351 106.662 12.3522C106.662 12.3534 106.662 12.3546 106.662 12.3558C106.662 12.357 106.662 12.3582 106.662 12.3594C106.662 12.3606 106.662 12.3618 106.662 12.363C106.662 12.3642 106.662 12.3653 106.662 12.3665C106.662 12.3677 106.662 12.3689 106.662 12.3701C106.662 12.3713 106.662 12.3725 106.662 12.3737C106.662 12.3749 106.662 12.3761 106.662 12.3773C106.662 12.3785 106.662 12.3797 106.662 12.3809C106.662 12.3821 106.662 12.3832 106.662 12.3844C106.662 12.3856 106.662 12.3868 106.662 12.388C106.662 12.3892 106.662 12.3904 106.662 12.3916C106.662 12.3928 106.662 12.394 106.662 12.3952C106.662 12.3964 106.662 12.3976 106.662 12.3988C106.662 12.4 106.662 12.4012 106.662 12.4023C106.662 12.4035 106.662 12.4047 106.662 12.4059C106.662 12.4071 106.662 12.4083 106.662 12.4095C106.662 12.4107 106.662 12.4119 106.662 12.4131C106.662 12.4143 106.662 12.4155 106.662 12.4167C106.662 12.4179 106.662 12.4191 106.662 12.4202C106.662 12.4214 106.662 12.4226 106.662 12.4238C106.662 12.425 106.662 12.4262 106.662 12.4274C106.662 12.4286 106.662 12.4298 106.662 12.431C106.662 12.4322 106.662 12.4334 106.662 12.4346C106.662 12.4358 106.662 12.437 106.662 12.4382C106.662 12.4393 106.662 12.4405 106.662 12.4417C106.662 12.4429 106.662 12.4441 106.662 12.4453C106.662 12.4465 106.662 12.4477 106.662 12.4489C106.662 12.4501 106.662 12.4513 106.662 12.4525C106.662 12.4537 106.662 12.4549 106.662 12.4561C106.662 12.4572 106.662 12.4584 106.662 12.4596C106.662 12.4608 106.662 12.462 106.662 12.4632C106.662 12.4644 106.662 12.4656 106.662 12.4668C106.662 12.468 106.662 12.4692 106.662 12.4704C106.662 12.4716 106.662 12.4728 106.662 12.474C106.662 12.4752 106.662 12.4763 106.662 12.4775C106.662 12.4787 106.662 12.4799 106.662 12.4811C106.662 12.4823 106.662 12.4835 106.662 12.4847C106.662 12.4859 106.662 12.4871 106.662 12.4883C106.662 12.4895 106.662 12.4907 106.662 12.4919C106.662 12.4931 106.662 12.4942 106.662 12.4954C106.662 12.4966 106.662 12.4978 106.662 12.499C106.662 12.5002 106.662 12.5014 106.662 12.5026C106.662 12.5038 106.662 12.505 106.662 12.5062C106.662 12.5074 106.662 12.5086 106.662 12.5098C106.662 12.511 106.662 12.5122 106.662 12.5133C106.662 12.5145 106.662 12.5157 106.662 12.5169C106.662 12.5181 106.662 12.5193 106.662 12.5205C106.662 12.5217 106.662 12.5229 106.662 12.5241C106.662 12.5253 106.662 12.5265 106.662 12.5277C106.662 12.5289 106.662 12.5301 106.662 12.5312C106.662 12.5324 106.662 12.5336 106.662 12.5348C106.662 12.536 106.662 12.5372 106.662 12.5384C106.662 12.5396 106.662 12.5408 106.662 12.542C106.662 12.5432 106.662 12.5444 106.662 12.5456C106.662 12.5468 106.662 12.548 106.662 12.5492C106.662 12.5503 106.662 12.5515 106.662 12.5527C106.662 12.5539 106.662 12.5551 106.662 12.5563C106.662 12.5575 106.662 12.5587 106.662 12.5599C106.662 12.5611 106.662 12.5623 106.662 12.5635C106.662 12.5647 106.662 12.5659 106.662 12.5671C106.662 12.5682 106.662 12.5694 106.662 12.5706C106.662 12.5718 106.662 12.573 106.662 12.5742C106.662 12.5754 106.662 12.5766 106.662 12.5778C106.662 12.579 106.662 12.5802 106.662 12.5814C106.662 12.5826 106.662 12.5838 106.662 12.585C106.662 12.5862 106.662 12.5873 106.662 12.5885C106.662 12.5897 106.662 12.5909 106.662 12.5921C106.662 12.5933 106.662 12.5945 106.662 12.5957C106.662 12.5969 106.662 12.5981 106.662 12.5993C106.662 12.6005 106.662 12.6017 106.662 12.6029C106.662 12.6041 106.662 12.6052 106.662 12.6064C106.662 12.6076 106.662 12.6088 106.662 12.61C106.662 12.6112 106.662 12.6124 106.662 12.6136C106.662 12.6148 106.662 12.616 106.662 12.6172H107.662ZM107.662 10.7958C107.676 10.2048 107.725 9.6415 107.808 9.10559L106.82 8.95169C106.73 9.53395 106.677 10.1409 106.662 10.772L107.662 10.7958ZM107.807 9.11607C107.902 8.57974 108.051 8.07719 108.253 7.60715L107.334 7.21264C107.1 7.75675 106.93 8.33337 106.822 8.94121L107.807 9.11607ZM108.248 7.61808C108.45 7.17647 108.742 6.78306 109.128 6.43661L108.461 5.69177C107.977 6.12543 107.601 6.62916 107.339 7.20171L108.248 7.61808ZM109.128 6.43661C109.523 6.08357 110.038 5.78107 110.69 5.53797L110.34 4.60111C109.598 4.87809 108.967 5.23869 108.461 5.69177L109.128 6.43661ZM110.694 5.53632C111.349 5.28468 112.172 5.1098 113.171 5.02152L113.083 4.02539C112.022 4.11914 111.102 4.30831 110.336 4.60276L110.694 5.53632ZM113.172 5.0214C115.033 4.85212 116.493 4.6953 117.549 4.55077L117.413 3.56C116.38 3.70151 114.937 3.85674 113.082 4.02551L113.172 5.0214ZM117.554 4.55005C118.084 4.47206 118.484 4.41367 118.755 4.3748C118.891 4.35534 118.993 4.34092 119.063 4.33141C119.098 4.32663 119.124 4.32329 119.14 4.32123C119.178 4.31662 119.15 4.32135 119.114 4.32135V3.32135C119.071 3.32135 119.02 3.32851 119.018 3.32878C118.995 3.33159 118.965 3.33557 118.928 3.34054C118.855 3.35054 118.75 3.36537 118.613 3.38492C118.34 3.42406 117.938 3.48268 117.408 3.56072L117.554 4.55005ZM118.614 3.81463L118.592 5.43337L119.592 5.44681L119.614 3.82807L118.614 3.81463ZM118.998 4.94906C118.806 4.98599 118.495 5.03674 118.061 5.1016L118.208 6.09064C118.645 6.02547 118.973 5.97221 119.187 5.93113L118.998 4.94906ZM118.066 5.1008C117.699 5.15139 117.177 5.20912 116.498 5.2739L116.593 6.26939C117.277 6.20415 117.815 6.14487 118.203 6.09144L118.066 5.1008ZM116.497 5.274C115.832 5.3387 114.957 5.41649 113.869 5.50742L113.953 6.50394C115.042 6.41284 115.923 6.33461 116.594 6.26929L116.497 5.274ZM113.872 5.50722C112.507 5.61467 111.382 5.91316 110.534 6.4389L111.061 7.28872C111.723 6.87832 112.673 6.60472 113.95 6.50414L113.872 5.50722ZM110.531 6.44121C109.69 6.97266 109.13 7.7113 108.878 8.64474L109.844 8.90546C110.027 8.22665 110.425 7.6911 111.065 7.2864L110.531 6.44121ZM109.619 9.20306C110.19 8.85839 110.863 8.59694 111.645 8.42479L111.43 7.44815C110.558 7.64006 109.78 7.9377 109.102 8.34714L109.619 9.20306ZM111.651 8.42357C112.451 8.23822 113.327 8.14393 114.281 8.14393V7.14393C113.261 7.14393 112.309 7.24466 111.425 7.44937L111.651 8.42357ZM114.281 8.14393C115.278 8.14393 116.173 8.24466 116.969 8.44137L117.209 7.47058C116.322 7.25123 115.345 7.14393 114.281 7.14393V8.14393ZM116.977 8.44307C117.765 8.62566 118.41 8.91297 118.926 9.29422L119.52 8.49002C118.875 8.01313 118.098 7.67636 117.202 7.46888L116.977 8.44307ZM118.936 9.30189C119.462 9.66968 119.864 10.1377 120.146 10.7118L121.043 10.2709C120.687 9.54483 120.174 8.94668 119.509 8.48235L118.936 9.30189ZM120.147 10.7154C120.424 11.2673 120.573 11.9537 120.573 12.7927H121.573C121.573 11.8374 121.403 10.9896 121.041 10.2673L120.147 10.7154ZM108.73 12.7457C108.762 14.1216 109.238 15.2092 110.23 15.8954L110.799 15.0729C110.137 14.6149 109.757 13.8692 109.73 12.7227L108.73 12.7457ZM110.238 15.9006C111.194 16.5357 112.496 16.8227 114.085 16.8227V15.8227C112.597 15.8227 111.519 15.5507 110.791 15.0676L110.238 15.9006ZM114.085 16.8227C115.66 16.8227 116.957 16.5421 117.924 15.9252L117.387 15.0821C116.641 15.5573 115.558 15.8227 114.085 15.8227V16.8227ZM117.926 15.9244C118.969 15.2542 119.473 14.1617 119.505 12.7651L118.505 12.7423C118.479 13.8941 118.083 14.6349 117.385 15.0829L117.926 15.9244ZM119.505 12.748C119.489 11.3662 119.033 10.2838 118.029 9.65759L117.5 10.506C118.121 10.8939 118.492 11.5928 118.505 12.7594L119.505 12.748ZM118.034 9.66064C117.107 9.06728 115.828 8.80168 114.259 8.80168V9.80168C115.738 9.80168 116.797 10.0562 117.495 10.503L118.034 9.66064ZM114.259 8.80168C113.479 8.80168 112.758 8.86211 112.099 8.98577L112.283 9.96864C112.872 9.85827 113.53 9.80168 114.259 9.80168V8.80168ZM112.097 8.98617C111.439 9.1125 110.855 9.3267 110.358 9.63869L110.889 10.4859C111.263 10.2518 111.724 10.0759 112.285 9.96824L112.097 8.98617ZM110.358 9.63869C109.852 9.95568 109.452 10.3747 109.164 10.8913L110.037 11.3786C110.242 11.0111 110.524 10.715 110.889 10.4859L110.358 9.63869ZM109.161 10.897C108.881 11.4138 108.746 12.0299 108.73 12.7228L109.73 12.7456C109.743 12.1643 109.855 11.7143 110.04 11.3729L109.161 10.897ZM133.589 8.18527L126.274 17.1176L127.047 17.7512L134.362 8.81885L133.589 8.18527ZM126.66 16.9344H123.351V17.9344H126.66V16.9344ZM123.851 17.4344V7.09785H122.851V17.4344H123.851ZM123.351 7.59785H125.376V6.59785H123.351V7.59785ZM124.876 7.09785V15.9522H125.876V7.09785H124.876ZM125.761 16.2706L133.076 7.4163L132.305 6.77939L124.991 15.6337L125.761 16.2706ZM132.691 7.59785H136V6.59785H132.691V7.59785ZM135.5 7.09785V17.4344H136.5V7.09785H135.5ZM136 16.9344H133.975V17.9344H136V16.9344ZM134.475 17.4344V8.50206H133.475V17.4344H134.475ZM28.0188 0.764027L27.0455 2.28321L27.8875 2.82269L28.8608 1.30351L28.0188 0.764027ZM27.0451 2.28372C27.0734 2.2395 27.1636 2.14705 27.3195 2.14938C27.4697 2.15163 27.5491 2.23998 27.5697 2.27098L26.7375 2.82539C26.8468 2.98944 27.0409 3.14533 27.3046 3.14927C27.574 3.1533 27.7763 2.99671 27.8878 2.82218L27.0451 2.28372ZM27.5697 2.27099L26.5384 0.722799L25.7062 1.2772L26.7375 2.82539L27.5697 2.27099ZM25.8985 0.552856L25.0929 0.955973L25.5404 1.85026L26.346 1.44714L25.8985 0.552856ZM24.9005 1.68032L25.9319 3.2285L26.7641 2.67411L25.7328 1.12592L24.9005 1.68032ZM25.9319 3.2285C25.9174 3.20684 25.827 3.0414 25.9487 2.85132C26.0014 2.76894 26.0707 2.72653 26.1187 2.70726C26.165 2.6887 26.1973 2.68847 26.204 2.68857L26.1886 3.68845C26.3544 3.69101 26.6289 3.64354 26.791 3.39028C26.9676 3.11419 26.8672 2.82882 26.7641 2.67411L25.9319 3.2285ZM26.2035 2.68857L24.1989 2.65956L24.1844 3.65946L26.1891 3.68846L26.2035 2.68857ZM23.6917 3.16927L23.7079 3.99967L24.7077 3.98015L24.6915 3.14975L23.6917 3.16927ZM24.2006 4.48986L26.2052 4.5189L26.2197 3.519L24.2151 3.48996L24.2006 4.48986ZM26.2875 4.51329C26.181 4.52946 26.0524 4.49008 25.9721 4.36953L26.8043 3.81511C26.6515 3.58573 26.3821 3.48747 26.1374 3.52462L26.2875 4.51329ZM25.9721 4.36952C25.88 4.23135 25.8933 4.03858 26.014 3.91355L26.7333 4.60829C26.9441 4.39007 26.9689 4.06213 26.8043 3.81512L25.9721 4.36952ZM25.9526 3.99119L24.9794 5.51034L25.8214 6.0498L26.7947 4.53065L25.9526 3.99119ZM25.1696 6.22365L25.9913 6.65102L26.4527 5.76386L25.6311 5.33649L25.1696 6.22365ZM26.643 6.47718L27.6164 4.958L26.7744 4.41852L25.801 5.9377L26.643 6.47718ZM27.6167 4.95749C27.5884 5.00171 27.4983 5.09415 27.3423 5.09182C27.1922 5.08958 27.1128 5.00123 27.0921 4.97022L27.9244 4.41582C27.8151 4.25176 27.6209 4.09588 27.3573 4.09193C27.0879 4.08791 26.8856 4.24449 26.774 4.41903L27.6167 4.95749ZM27.0921 4.97022L28.1234 6.51841L28.9557 5.96401L27.9244 4.41582L27.0921 4.97022ZM28.7633 6.68835L29.5689 6.28523L29.1214 5.39094L28.3158 5.79406L28.7633 6.68835ZM29.7613 5.56088L28.73 4.0127L27.8977 4.5671L28.929 6.11528L29.7613 5.56088ZM28.73 4.0127C28.7444 4.03436 28.8348 4.1998 28.7132 4.38989C28.6605 4.47226 28.5911 4.51467 28.5431 4.53394C28.4969 4.5525 28.4645 4.55273 28.4578 4.55263L28.4732 3.55275C28.3074 3.55019 28.0329 3.59766 27.8708 3.85092C27.6942 4.12701 27.7947 4.41238 27.8977 4.5671L28.73 4.0127ZM28.4583 4.55263L30.463 4.58164L30.4774 3.58174L28.4727 3.55274L28.4583 4.55263ZM30.9701 4.07193L30.9539 3.24153L29.9541 3.26105L29.9703 4.09145L30.9701 4.07193ZM30.4612 2.75134L28.4566 2.7223L28.4421 3.7222L30.4467 3.75124L30.4612 2.75134ZM28.3743 2.72791C28.4809 2.71174 28.6094 2.75111 28.6897 2.87167L27.8575 3.42609C28.0103 3.65548 28.2798 3.75373 28.5244 3.71658L28.3743 2.72791ZM28.6897 2.87168C28.7818 3.00985 28.7686 3.20262 28.6478 3.32765L27.9285 2.6329C27.7178 2.85113 27.6929 3.17907 27.8575 3.42608L28.6897 2.87168ZM28.7092 3.25001L29.6825 1.73087L28.8405 1.19141L27.8672 2.71054L28.7092 3.25001ZM29.4922 1.01755L28.6705 0.590183L28.2091 1.47735L29.0307 1.90472L29.4922 1.01755ZM98.5212 0.897079L97.5478 2.41626L98.3898 2.95574L99.3632 1.43656L98.5212 0.897079ZM97.5475 2.41676C97.5757 2.37255 97.6659 2.2801 97.8219 2.28244C97.972 2.28468 98.0514 2.37303 98.0721 2.40404L97.2398 2.95844C97.3491 3.12249 97.5433 3.27838 97.8069 3.28232C98.0763 3.28635 98.2786 3.12976 98.3901 2.95524L97.5475 2.41676ZM98.0721 2.40404L97.0408 0.855851L96.2085 1.41025L97.2398 2.95844L98.0721 2.40404ZM96.4009 0.685907L95.5953 1.08902L96.0428 1.98331L96.8484 1.5802L96.4009 0.685907ZM95.4029 1.81337L96.4342 3.36155L97.2665 2.80716L96.2351 1.25897L95.4029 1.81337ZM96.4342 3.36155C96.4198 3.33988 96.3294 3.17444 96.451 2.98436C96.5037 2.90199 96.5731 2.85958 96.6211 2.84031C96.6673 2.82176 96.6996 2.82152 96.7064 2.82162L96.6909 3.8215C96.8568 3.82407 97.1313 3.77659 97.2933 3.52334C97.47 3.24726 97.3695 2.96188 97.2665 2.80716L96.4342 3.36155ZM96.7059 2.82162L94.7012 2.79261L94.6868 3.79251L96.6914 3.82151L96.7059 2.82162ZM94.1941 3.30232L94.2103 4.13272L95.2101 4.1132L95.1939 3.2828L94.1941 3.30232ZM94.703 4.62291L96.7076 4.65195L96.722 3.65205L94.7174 3.62301L94.703 4.62291ZM96.7898 4.64634C96.6833 4.66251 96.5547 4.62315 96.4744 4.50255L97.3067 3.9482C97.1539 3.71876 96.8844 3.62053 96.6398 3.65767L96.7898 4.64634ZM96.4744 4.50259C96.3823 4.36435 96.3957 4.17158 96.5163 4.04662L97.2356 4.74133C97.4463 4.52317 97.4713 4.19524 97.3067 3.94816L96.4744 4.50259ZM96.455 4.12425L95.4817 5.64339L96.3237 6.18285L97.297 4.6637L96.455 4.12425ZM95.672 6.3567L96.4936 6.78407L96.9551 5.89691L96.1334 5.46954L95.672 6.3567ZM97.1453 6.61023L98.1187 5.09105L97.2767 4.55157L96.3034 6.07075L97.1453 6.61023ZM98.119 5.09055C98.0908 5.13476 98.0006 5.22721 97.8447 5.22487C97.6945 5.22263 97.6151 5.13428 97.5944 5.10327L98.4267 4.54887C98.3174 4.38482 98.1232 4.22893 97.8596 4.22499C97.5902 4.22096 97.3879 4.37755 97.2764 4.55207L98.119 5.09055ZM97.5944 5.10327L98.6258 6.65146L99.458 6.09706L98.4267 4.54887L97.5944 5.10327ZM99.2656 6.8214L100.071 6.41828L99.6238 5.52399L98.8181 5.92711L99.2656 6.8214ZM100.264 5.69394L99.2323 4.14575L98.4001 4.70015L99.4314 6.24833L100.264 5.69394ZM99.2323 4.14573C99.2467 4.1674 99.3371 4.33285 99.2155 4.52294C99.1628 4.60531 99.0934 4.64772 99.0454 4.66699C98.9992 4.68555 98.9669 4.68578 98.9601 4.68568L98.9756 3.6858C98.8097 3.68324 98.5352 3.73072 98.3732 3.98397C98.1965 4.26006 98.297 4.54545 98.4001 4.70016L99.2323 4.14573ZM98.9606 4.68569L100.965 4.71469L100.98 3.71479L98.9751 3.68579L98.9606 4.68569ZM101.472 4.20498L101.456 3.37458L100.456 3.3941L100.473 4.2245L101.472 4.20498ZM100.964 2.88439L98.959 2.85535L98.9445 3.85525L100.949 3.88429L100.964 2.88439ZM98.8767 2.86097C98.9832 2.84479 99.1118 2.88416 99.1921 3.00471L98.3598 3.55915C98.5127 3.78854 98.7821 3.88678 99.0268 3.84964L98.8767 2.86097ZM99.1921 3.00471C99.2841 3.14291 99.2709 3.33568 99.1502 3.46069L98.4309 2.76597C98.2201 2.98417 98.1953 3.31211 98.3598 3.55915L99.1921 3.00471ZM99.2115 3.38306L100.185 1.86392L99.3428 1.32446L98.3695 2.8436L99.2115 3.38306ZM99.9945 1.1506L99.1729 0.723235L98.7114 1.6104L99.5331 2.03777L99.9945 1.1506Z" fill="black" mask="url(#path-1-outside-1_83_190)"/>
</svg>
